<?xml version="1.0" encoding="UTF-8"?>
<svg width="142px" height="159px" viewBox="0 0 142 159" version="1.1" xmlns="http://www.w3.org/2000/svg" xmlns:xlink="http://www.w3.org/1999/xlink">
    <!-- Generator: Sketch 45.2 (43514) - http://www.bohemiancoding.com/sketch -->
    <title>yw_LogoShirt_blue</title>
    <desc>Created with Sketch.</desc>
    <defs></defs>
    <g id="Page-1" stroke="none" stroke-width="1" fill="none" fill-rule="evenodd">
        <path d="M16.8808594,147.476562 L18.4189453,144.995117 C18.646811,144.625975 18.7607422,144.279624 18.7607422,143.956055 C18.7607422,143.892252 18.7539063,143.79655 18.7402344,143.668945 L21.2558594,143.668945 C21.0690095,143.791993 20.917481,143.927571 20.8012695,144.075684 C20.685058,144.223796 20.5084647,144.507485 20.2714844,144.926758 L17.4824219,149.452148 L17.4824219,151.619141 C17.5006511,152.229821 17.6305326,152.690103 17.8720703,153 L13.5449219,153 C13.7864595,152.690103 13.9163411,152.229821 13.9345703,151.619141 L13.9345703,149.452148 L11.2275391,145.152344 C10.8173808,144.477861 10.4710301,143.9834 10.1884766,143.668945 L14.8916016,143.668945 C14.8916016,143.924155 14.9246416,144.145181 14.9907227,144.332031 C15.0568037,144.518881 15.1878245,144.76953 15.3837891,145.083984 L16.8808594,147.476562 Z M23.8398437,143.668945 L29.2607422,143.668945 C29.62077,143.668945 29.9693994,143.737304 30.3066406,143.874023 C30.6438819,144.010743 30.915038,144.195311 31.1201172,144.427734 C31.4664731,144.796877 31.6419271,145.434891 31.6464844,146.341797 L31.6464844,150.327148 C31.6419271,151.234054 31.4664731,151.872068 31.1201172,152.241211 C30.915038,152.473634 30.6438819,152.658202 30.3066406,152.794922 C29.9693994,152.931641 29.62077,153 29.2607422,153 L23.8398437,153 C23.4798159,153 23.1311866,152.931641 22.7939453,152.794922 C22.456704,152.658202 22.1855479,152.473634 21.9804687,152.241211 C21.6341129,151.872068 21.4586589,151.234054 21.4541016,150.327148 L21.4541016,146.341797 C21.4586589,145.434891 21.6341129,144.796877 21.9804687,144.427734 C22.1855479,144.195311 22.456704,144.010743 22.7939453,143.874023 C23.1311866,143.737304 23.4798159,143.668945 23.8398437,143.668945 L23.8398437,143.668945 Z M25.0019531,146.300781 L25.0019531,150.368164 C25.0019531,150.773765 25.0406897,151.044921 25.1181641,151.181641 C25.2594408,151.373048 25.5283183,151.466471 25.9248047,151.461914 L27.1757812,151.461914 C27.5585957,151.461914 27.8081049,151.393555 27.9243164,151.256836 C28.0405279,151.120117 28.0986328,150.823896 28.0986328,150.368164 L28.0986328,146.300781 C28.0986328,145.89518 28.0598962,145.624024 27.9824219,145.487305 C27.8411451,145.295897 27.5722676,145.202474 27.1757812,145.207031 L25.7949219,145.207031 C25.4804672,145.207031 25.2696945,145.281086 25.1625977,145.429199 C25.0555008,145.577312 25.0019531,145.867836 25.0019531,146.300781 L25.0019531,146.300781 Z M36.9238281,143.668945 C36.6822905,143.978843 36.5524089,144.439125 36.5341797,145.049805 L36.5341797,150.368164 C36.5341797,150.773765 36.5729163,151.044921 36.6503906,151.181641 C36.7916674,151.373048 37.0605449,151.466471 37.4570312,151.461914 L40.3349609,151.461914 C40.7177754,151.461914 40.9672846,151.393555 41.0834961,151.256836 C41.1997076,151.120117 41.2578125,150.823896 41.2578125,150.368164 L41.2578125,145.049805 C41.2395832,144.443682 41.1097017,143.9834 40.8681641,143.668945 L43.1855469,143.668945 C42.9440092,143.978843 42.8141277,144.439125 42.7958984,145.049805 L42.7958984,150.327148 C42.7958984,150.814781 42.7548832,151.194172 42.6728516,151.465332 C42.5908199,151.736492 42.4404308,151.995116 42.2216797,152.241211 C41.7887348,152.737958 41.1848997,152.990885 40.4101562,153 L35.3720703,153 C34.5973269,152.990885 33.9934917,152.737958 33.5605469,152.241211 C33.3417958,151.999673 33.1914067,151.742189 33.109375,151.46875 C33.0273433,151.195311 32.9863281,150.814781 32.9863281,150.327148 L32.9863281,145.049805 C32.9680989,144.452796 32.8382174,143.992515 32.5966797,143.668945 L36.9238281,143.668945 Z M45.9472656,153 C46.1888033,152.690103 46.3186848,152.229821 46.3369141,151.619141 L46.3369141,145.207031 L44.6894531,145.207031 C44.3567692,145.207031 44.1106779,145.22526 43.9511719,145.261719 C43.7916659,145.298177 43.6230478,145.373372 43.4453125,145.487305 L43.7255859,143.668945 L52.4960938,143.668945 L52.7763672,145.487305 C52.5986319,145.373372 52.4300138,145.298177 52.2705078,145.261719 C52.1110018,145.22526 51.8649105,145.207031 51.5322266,145.207031 L49.8847656,145.207031 L49.8847656,151.619141 C49.9029949,152.229821 50.0328764,152.690103 50.2744141,153 L45.9472656,153 Z M59.8789062,148.994141 L57.171875,148.994141 L57.171875,151.612305 C57.1901043,152.222985 57.3199858,152.685545 57.5615234,153 L53.234375,153 C53.4759127,152.676431 53.6057942,152.21387 53.6240234,151.612305 L53.6240234,145.049805 C53.6057942,144.452796 53.4759127,143.992515 53.234375,143.668945 L57.5615234,143.668945 C57.3199858,143.978843 57.1901043,144.439125 57.171875,145.049805 L57.171875,147.456055 L59.8789062,147.456055 L59.8789062,145.049805 C59.860677,144.439125 59.7307955,143.978843 59.4892578,143.668945 L63.8164062,143.668945 C63.5748686,143.978843 63.4449871,144.439125 63.4267578,145.049805 L63.4267578,151.612305 C63.4449871,152.222985 63.5748686,152.685545 63.8164062,153 L59.4892578,153 C59.7307955,152.685545 59.860677,152.222985 59.8789062,151.612305 L59.8789062,148.994141 Z M71.9306641,146.827148 L70.3242188,153 L66.8447266,153 L64.7529297,145.09082 C64.6435541,144.685219 64.5558272,144.401531 64.4897461,144.239746 C64.423665,144.077961 64.3177091,143.887696 64.171875,143.668945 L68.4375,143.668945 C68.350911,143.910483 68.3076172,144.124674 68.3076172,144.311523 C68.3076172,144.539389 68.350911,144.826496 68.4375,145.172852 L69.5996094,149.711914 L71.171875,143.668945 L74.8291016,143.668945 L76.4287109,149.711914 L77.5771484,145.213867 C77.6591801,144.899412 77.7001953,144.598634 77.7001953,144.311523 C77.7001953,144.101887 77.6591801,143.887696 77.5771484,143.668945 L79.8125,143.668945 C79.6484367,143.846681 79.5322269,144.015299 79.4638672,144.174805 C79.3955075,144.334311 79.2998053,144.653318 79.1767578,145.131836 L77.1259766,153 L73.5644531,153 L71.9306641,146.827148 Z M83.9072266,145.207031 L83.9072266,147.469727 L86.7646484,147.469727 C87.3343127,147.469727 87.7763656,147.399089 88.0908203,147.257812 L88.0908203,149.253906 C87.9039704,149.098958 87.5507838,149.016927 87.03125,149.007812 L83.9072266,149.007812 L83.9072266,151.461914 L87.3662109,151.461914 C87.6806656,151.461914 88.1227185,151.354819 88.6923828,151.140625 L88.3847656,153 L79.9697266,153 C80.2112642,152.676431 80.3411457,152.216149 80.359375,151.619141 L80.359375,145.049805 C80.3411457,144.452796 80.2112642,143.992515 79.9697266,143.668945 L88.1865234,143.668945 L88.4599609,145.418945 C88.1774074,145.323242 87.9575203,145.265137 87.800293,145.244629 C87.6430656,145.224121 87.3138046,145.211589 86.8125,145.207031 L83.9072266,145.207031 Z M97.1074219,148.166992 C97.5950545,148.166992 97.9641915,148.193196 98.2148438,148.245605 C98.465496,148.298015 98.677408,148.392577 98.8505859,148.529297 C99.1695979,148.779949 99.3313802,149.196937 99.3359375,149.780273 L99.3359375,151.06543 C99.3222656,151.721683 99.126304,152.213866 98.7480469,152.541992 C98.5520824,152.71517 98.3196628,152.834798 98.0507812,152.900879 C97.7818997,152.96696 97.3831407,153 96.8544922,153 L89.2939453,153 C89.535483,152.676431 89.6653645,152.216149 89.6835938,151.619141 L89.6835938,145.049805 C89.6653645,144.452796 89.535483,143.992515 89.2939453,143.668945 L96.8544922,143.668945 C97.3831407,143.668945 97.7807604,143.700846 98.0473633,143.764648 C98.3139662,143.828451 98.547525,143.949218 98.7480469,144.126953 C99.126304,144.45508 99.3222656,144.947262 99.3359375,145.603516 L99.3359375,146.533203 C99.3359375,146.902346 99.2960616,147.179198 99.2163086,147.36377 C99.1365556,147.548341 98.9895844,147.699869 98.7753906,147.818359 C98.4563786,147.98698 97.9003946,148.10319 97.1074219,148.166992 L97.1074219,148.166992 Z M93.2314453,147.483398 L95.1660156,147.483398 C95.4576838,147.483398 95.652506,147.423015 95.7504883,147.302246 C95.8484705,147.181477 95.8974609,146.941083 95.8974609,146.581055 L95.8974609,146.205078 C95.8974609,145.808592 95.8541671,145.543132 95.7675781,145.408691 C95.6809892,145.274251 95.5100924,145.207031 95.2548828,145.207031 L93.2314453,145.207031 L93.2314453,147.483398 Z M93.2314453,151.461914 L94.9746094,151.461914 C95.3710957,151.461914 95.6399733,151.38672 95.78125,151.236328 C95.8313805,151.177083 95.8632812,151.108724 95.8769531,151.03125 C95.8906251,150.953776 95.8974609,150.794272 95.8974609,150.552734 L95.8974609,150.115234 C95.8974609,149.791665 95.8906251,149.575196 95.8769531,149.46582 C95.8632812,149.356445 95.8291018,149.263021 95.7744141,149.185547 C95.7242836,149.11263 95.6582035,149.067057 95.5761719,149.048828 C95.4941402,149.030599 95.3255221,149.021484 95.0703125,149.021484 L93.2314453,149.021484 L93.2314453,151.461914 Z M100.880859,150.504883 L104.394531,150.504883 L104.394531,153 L100.880859,153 L100.880859,150.504883 Z M110.724609,143.668945 L114.313477,151.106445 L114.313477,145.049805 C114.295247,144.439125 114.165366,143.978843 113.923828,143.668945 L116.241211,143.668945 C115.999673,143.978843 115.869792,144.439125 115.851562,145.049805 L115.851562,153 L111.339844,153 L107.580078,145.405273 L107.580078,151.619141 C107.598307,152.225263 107.728189,152.685545 107.969727,153 L105.652344,153 C105.893881,152.676431 106.023763,152.216149 106.041992,151.619141 L106.041992,145.049805 C106.023763,144.452796 105.893881,143.992515 105.652344,143.668945 L110.724609,143.668945 Z M120.923828,145.207031 L120.923828,147.469727 L123.78125,147.469727 C124.350914,147.469727 124.792967,147.399089 125.107422,147.257812 L125.107422,149.253906 C124.920572,149.098958 124.567385,149.016927 124.047852,149.007812 L120.923828,149.007812 L120.923828,151.461914 L124.382812,151.461914 C124.697267,151.461914 125.13932,151.354819 125.708984,151.140625 L125.401367,153 L116.986328,153 C117.227866,152.676431 117.357747,152.216149 117.375977,151.619141 L117.375977,145.049805 C117.357747,144.452796 117.227866,143.992515 116.986328,143.668945 L125.203125,143.668945 L125.476562,145.418945 C125.194009,145.323242 124.974122,145.265137 124.816895,145.244629 C124.659667,145.224121 124.330406,145.211589 123.829102,145.207031 L120.923828,145.207031 Z M128.347656,153 C128.589194,152.690103 128.719075,152.229821 128.737305,151.619141 L128.737305,145.207031 L127.089844,145.207031 C126.75716,145.207031 126.511069,145.22526 126.351562,145.261719 C126.192056,145.298177 126.023438,145.373372 125.845703,145.487305 L126.125977,143.668945 L134.896484,143.668945 L135.176758,145.487305 C134.999023,145.373372 134.830404,145.298177 134.670898,145.261719 C134.511392,145.22526 134.265301,145.207031 133.932617,145.207031 L132.285156,145.207031 L132.285156,151.619141 C132.303386,152.229821 132.433267,152.690103 132.674805,153 L128.347656,153 Z" id="YOUTHWEB.NET-3" fill="#1C60A1"></path>
        <path d="M10.1884766,22.3441288 L10.1884766,122.50243 C10.1884766,122.50243 10.7495117,131.947156 20.1870117,131.947156 L42.9522245,131.947156 C42.9522245,131.947156 47.5544434,128.02992 47.5544434,114.27992 L47.5544434,84.4537474 L10.1884766,22.3441288 Z" id="Path-39" fill="#1C60A1"></path>
        <path d="M99.3552246,131.921872 C100.477539,131.97876 124.152672,131.921875 124.152672,131.921875 C124.152672,131.921875 135.176758,132.697998 135.176758,121.135498 L135.176758,16.6725507 C135.176758,16.6725507 134.752686,19.492187 132.377686,22.4921875 C130.002686,25.492188 94.8105469,84.2758789 94.8105469,84.2758789 L94.8105469,113.716888 C94.8105469,113.716888 94.6010742,126.103027 99.3552246,131.921872 Z" id="Path-40" fill="#1C60A1"></path>
        <path d="M60.2907715,6.93774414 C60.2907715,6.93774414 59.0212402,15.3989258 68.6447754,28.7675781 C69.2587891,30.0788574 86.715332,58.0913086 86.715332,58.0913086 L108.172119,23.2744141 C108.172119,23.2744141 112.817381,16.3652344 112.567383,7.02636719 C112.567627,6.97998047 60.2907715,6.93774414 60.2907715,6.93774414 Z" id="Path-41" fill="#1C60A1"></path>
    </g>
</svg>