<?xml version="1.0" encoding="UTF-8"?>
<svg width="142px" height="159px" viewBox="0 0 142 159" version="1.1" xmlns="http://www.w3.org/2000/svg" xmlns:xlink="http://www.w3.org/1999/xlink">
    <!-- Generator: Sketch 45.2 (43514) - http://www.bohemiancoding.com/sketch -->
    <title>yw_LogoShirt_yellow</title>
    <desc>Created with Sketch.</desc>
    <defs></defs>
    <g id="Page-1" stroke="none" stroke-width="1" fill="none" fill-rule="evenodd">
        <path d="M16.4257812,147.476562 L17.9638672,144.995117 C18.1917329,144.625975 18.3056641,144.279624 18.3056641,143.956055 C18.3056641,143.892252 18.2988282,143.79655 18.2851562,143.668945 L20.8007812,143.668945 C20.6139314,143.791993 20.4624029,143.927571 20.3461914,144.075684 C20.2299799,144.223796 20.0533866,144.507485 19.8164062,144.926758 L17.0273438,149.452148 L17.0273438,151.619141 C17.045573,152.229821 17.1754545,152.690103 17.4169922,153 L13.0898438,153 C13.3313814,152.690103 13.4612629,152.229821 13.4794922,151.619141 L13.4794922,149.452148 L10.7724609,145.152344 C10.3623026,144.477861 10.0159519,143.9834 9.73339844,143.668945 L14.4365234,143.668945 C14.4365234,143.924155 14.4695635,144.145181 14.5356445,144.332031 C14.6017256,144.518881 14.7327464,144.76953 14.9287109,145.083984 L16.4257812,147.476562 Z M23.3847656,143.668945 L28.8056641,143.668945 C29.1656919,143.668945 29.5143212,143.737304 29.8515625,143.874023 C30.1888038,144.010743 30.4599599,144.195311 30.6650391,144.427734 C31.011395,144.796877 31.1868489,145.434891 31.1914062,146.341797 L31.1914062,150.327148 C31.1868489,151.234054 31.011395,151.872068 30.6650391,152.241211 C30.4599599,152.473634 30.1888038,152.658202 29.8515625,152.794922 C29.5143212,152.931641 29.1656919,153 28.8056641,153 L23.3847656,153 C23.0247378,153 22.6761085,152.931641 22.3388672,152.794922 C22.0016259,152.658202 21.7304698,152.473634 21.5253906,152.241211 C21.1790347,151.872068 21.0035808,151.234054 20.9990234,150.327148 L20.9990234,146.341797 C21.0035808,145.434891 21.1790347,144.796877 21.5253906,144.427734 C21.7304698,144.195311 22.0016259,144.010743 22.3388672,143.874023 C22.6761085,143.737304 23.0247378,143.668945 23.3847656,143.668945 L23.3847656,143.668945 Z M24.546875,146.300781 L24.546875,150.368164 C24.546875,150.773765 24.5856116,151.044921 24.6630859,151.181641 C24.8043627,151.373048 25.0732402,151.466471 25.4697266,151.461914 L26.7207031,151.461914 C27.1035175,151.461914 27.3530268,151.393555 27.4692383,151.256836 C27.5854498,151.120117 27.6435547,150.823896 27.6435547,150.368164 L27.6435547,146.300781 C27.6435547,145.89518 27.6048181,145.624024 27.5273438,145.487305 C27.386067,145.295897 27.1171895,145.202474 26.7207031,145.207031 L25.3398438,145.207031 C25.0253891,145.207031 24.8146164,145.281086 24.7075195,145.429199 C24.6004226,145.577312 24.546875,145.867836 24.546875,146.300781 L24.546875,146.300781 Z M36.46875,143.668945 C36.2272123,143.978843 36.0973308,144.439125 36.0791016,145.049805 L36.0791016,150.368164 C36.0791016,150.773765 36.1178382,151.044921 36.1953125,151.181641 C36.3365892,151.373048 36.6054668,151.466471 37.0019531,151.461914 L39.8798828,151.461914 C40.2626972,151.461914 40.5122065,151.393555 40.628418,151.256836 C40.7446295,151.120117 40.8027344,150.823896 40.8027344,150.368164 L40.8027344,145.049805 C40.7845051,144.443682 40.6546236,143.9834 40.4130859,143.668945 L42.7304688,143.668945 C42.4889311,143.978843 42.3590496,144.439125 42.3408203,145.049805 L42.3408203,150.327148 C42.3408203,150.814781 42.2998051,151.194172 42.2177734,151.465332 C42.1357418,151.736492 41.9853527,151.995116 41.7666016,152.241211 C41.3336567,152.737958 40.7298216,152.990885 39.9550781,153 L34.9169922,153 C34.1422487,152.990885 33.5384136,152.737958 33.1054688,152.241211 C32.8867177,151.999673 32.7363285,151.742189 32.6542969,151.46875 C32.5722652,151.195311 32.53125,150.814781 32.53125,150.327148 L32.53125,145.049805 C32.5130207,144.452796 32.3831392,143.992515 32.1416016,143.668945 L36.46875,143.668945 Z M45.4921875,153 C45.7337252,152.690103 45.8636067,152.229821 45.8818359,151.619141 L45.8818359,145.207031 L44.234375,145.207031 C43.901691,145.207031 43.6555998,145.22526 43.4960938,145.261719 C43.3365877,145.298177 43.1679696,145.373372 42.9902344,145.487305 L43.2705078,143.668945 L52.0410156,143.668945 L52.3212891,145.487305 C52.1435538,145.373372 51.9749357,145.298177 51.8154297,145.261719 C51.6559237,145.22526 51.4098324,145.207031 51.0771484,145.207031 L49.4296875,145.207031 L49.4296875,151.619141 C49.4479168,152.229821 49.5777983,152.690103 49.8193359,153 L45.4921875,153 Z M59.4238281,148.994141 L56.7167969,148.994141 L56.7167969,151.612305 C56.7350261,152.222985 56.8649076,152.685545 57.1064453,153 L52.7792969,153 C53.0208345,152.676431 53.1507161,152.21387 53.1689453,151.612305 L53.1689453,145.049805 C53.1507161,144.452796 53.0208345,143.992515 52.7792969,143.668945 L57.1064453,143.668945 C56.8649076,143.978843 56.7350261,144.439125 56.7167969,145.049805 L56.7167969,147.456055 L59.4238281,147.456055 L59.4238281,145.049805 C59.4055989,144.439125 59.2757174,143.978843 59.0341797,143.668945 L63.3613281,143.668945 C63.1197905,143.978843 62.9899089,144.439125 62.9716797,145.049805 L62.9716797,151.612305 C62.9899089,152.222985 63.1197905,152.685545 63.3613281,153 L59.0341797,153 C59.2757174,152.685545 59.4055989,152.222985 59.4238281,151.612305 L59.4238281,148.994141 Z M71.4755859,146.827148 L69.8691406,153 L66.3896484,153 L64.2978516,145.09082 C64.188476,144.685219 64.100749,144.401531 64.034668,144.239746 C63.9685869,144.077961 63.8626309,143.887696 63.7167969,143.668945 L67.9824219,143.668945 C67.8958329,143.910483 67.8525391,144.124674 67.8525391,144.311523 C67.8525391,144.539389 67.8958329,144.826496 67.9824219,145.172852 L69.1445312,149.711914 L70.7167969,143.668945 L74.3740234,143.668945 L75.9736328,149.711914 L77.1220703,145.213867 C77.204102,144.899412 77.2451172,144.598634 77.2451172,144.311523 C77.2451172,144.101887 77.204102,143.887696 77.1220703,143.668945 L79.3574219,143.668945 C79.1933586,143.846681 79.0771488,144.015299 79.0087891,144.174805 C78.9404293,144.334311 78.8447272,144.653318 78.7216797,145.131836 L76.6708984,153 L73.109375,153 L71.4755859,146.827148 Z M83.4521484,145.207031 L83.4521484,147.469727 L86.3095703,147.469727 C86.8792346,147.469727 87.3212875,147.399089 87.6357422,147.257812 L87.6357422,149.253906 C87.4488923,149.098958 87.0957057,149.016927 86.5761719,149.007812 L83.4521484,149.007812 L83.4521484,151.461914 L86.9111328,151.461914 C87.2255875,151.461914 87.6676404,151.354819 88.2373047,151.140625 L87.9296875,153 L79.5146484,153 C79.7561861,152.676431 79.8860676,152.216149 79.9042969,151.619141 L79.9042969,145.049805 C79.8860676,144.452796 79.7561861,143.992515 79.5146484,143.668945 L87.7314453,143.668945 L88.0048828,145.418945 C87.7223293,145.323242 87.5024422,145.265137 87.3452148,145.244629 C87.1879875,145.224121 86.8587265,145.211589 86.3574219,145.207031 L83.4521484,145.207031 Z M96.6523438,148.166992 C97.1399764,148.166992 97.5091133,148.193196 97.7597656,148.245605 C98.0104179,148.298015 98.2223299,148.392577 98.3955078,148.529297 C98.7145198,148.779949 98.8763021,149.196937 98.8808594,149.780273 L98.8808594,151.06543 C98.8671874,151.721683 98.6712258,152.213866 98.2929688,152.541992 C98.0970042,152.71517 97.8645847,152.834798 97.5957031,152.900879 C97.3268216,152.96696 96.9280625,153 96.3994141,153 L88.8388672,153 C89.0804049,152.676431 89.2102864,152.216149 89.2285156,151.619141 L89.2285156,145.049805 C89.2102864,144.452796 89.0804049,143.992515 88.8388672,143.668945 L96.3994141,143.668945 C96.9280625,143.668945 97.3256823,143.700846 97.5922852,143.764648 C97.8588881,143.828451 98.0924469,143.949218 98.2929688,144.126953 C98.6712258,144.45508 98.8671874,144.947262 98.8808594,145.603516 L98.8808594,146.533203 C98.8808594,146.902346 98.8409835,147.179198 98.7612305,147.36377 C98.6814775,147.548341 98.5345063,147.699869 98.3203125,147.818359 C98.0013005,147.98698 97.4453165,148.10319 96.6523438,148.166992 L96.6523438,148.166992 Z M92.7763672,147.483398 L94.7109375,147.483398 C95.0026056,147.483398 95.1974279,147.423015 95.2954102,147.302246 C95.3933924,147.181477 95.4423828,146.941083 95.4423828,146.581055 L95.4423828,146.205078 C95.4423828,145.808592 95.399089,145.543132 95.3125,145.408691 C95.225911,145.274251 95.0550143,145.207031 94.7998047,145.207031 L92.7763672,145.207031 L92.7763672,147.483398 Z M92.7763672,151.461914 L94.5195312,151.461914 C94.9160176,151.461914 95.1848951,151.38672 95.3261719,151.236328 C95.3763023,151.177083 95.4082031,151.108724 95.421875,151.03125 C95.4355469,150.953776 95.4423828,150.794272 95.4423828,150.552734 L95.4423828,150.115234 C95.4423828,149.791665 95.4355469,149.575196 95.421875,149.46582 C95.4082031,149.356445 95.3740237,149.263021 95.3193359,149.185547 C95.2692055,149.11263 95.2031254,149.067057 95.1210938,149.048828 C95.0390621,149.030599 94.870444,149.021484 94.6152344,149.021484 L92.7763672,149.021484 L92.7763672,151.461914 Z M100.425781,150.504883 L103.939453,150.504883 L103.939453,153 L100.425781,153 L100.425781,150.504883 Z M110.269531,143.668945 L113.858398,151.106445 L113.858398,145.049805 C113.840169,144.439125 113.710288,143.978843 113.46875,143.668945 L115.786133,143.668945 C115.544595,143.978843 115.414714,144.439125 115.396484,145.049805 L115.396484,153 L110.884766,153 L107.125,145.405273 L107.125,151.619141 C107.143229,152.225263 107.273111,152.685545 107.514648,153 L105.197266,153 C105.438803,152.676431 105.568685,152.216149 105.586914,151.619141 L105.586914,145.049805 C105.568685,144.452796 105.438803,143.992515 105.197266,143.668945 L110.269531,143.668945 Z M120.46875,145.207031 L120.46875,147.469727 L123.326172,147.469727 C123.895836,147.469727 124.337889,147.399089 124.652344,147.257812 L124.652344,149.253906 C124.465494,149.098958 124.112307,149.016927 123.592773,149.007812 L120.46875,149.007812 L120.46875,151.461914 L123.927734,151.461914 C124.242189,151.461914 124.684242,151.354819 125.253906,151.140625 L124.946289,153 L116.53125,153 C116.772788,152.676431 116.902669,152.216149 116.920898,151.619141 L116.920898,145.049805 C116.902669,144.452796 116.772788,143.992515 116.53125,143.668945 L124.748047,143.668945 L125.021484,145.418945 C124.738931,145.323242 124.519044,145.265137 124.361816,145.244629 C124.204589,145.224121 123.875328,145.211589 123.374023,145.207031 L120.46875,145.207031 Z M127.892578,153 C128.134116,152.690103 128.263997,152.229821 128.282227,151.619141 L128.282227,145.207031 L126.634766,145.207031 C126.302082,145.207031 126.05599,145.22526 125.896484,145.261719 C125.736978,145.298177 125.56836,145.373372 125.390625,145.487305 L125.670898,143.668945 L134.441406,143.668945 L134.72168,145.487305 C134.543944,145.373372 134.375326,145.298177 134.21582,145.261719 C134.056314,145.22526 133.810223,145.207031 133.477539,145.207031 L131.830078,145.207031 L131.830078,151.619141 C131.848307,152.229821 131.978189,152.690103 132.219727,153 L127.892578,153 Z" id="YOUTHWEB.NET" fill="#F9B000"></path>
        <path d="M9.73339844,22.3441288 L9.73339844,122.50243 C9.73339844,122.50243 10.2944336,131.947156 19.7319336,131.947156 L42.4971463,131.947156 C42.4971463,131.947156 47.0993652,128.02992 47.0993652,114.27992 L47.0993652,84.4537474 L9.73339844,22.3441288 Z" id="Path-33" fill="#F9B000"></path>
        <path d="M98.9001465,131.921872 C100.022461,131.97876 123.697594,131.921875 123.697594,131.921875 C123.697594,131.921875 134.72168,132.697998 134.72168,121.135498 L134.72168,16.6725507 C134.72168,16.6725507 134.297607,19.492187 131.922607,22.4921875 C129.547607,25.492188 94.3554687,84.2758789 94.3554687,84.2758789 L94.3554687,113.716888 C94.3554687,113.716888 94.1459961,126.103027 98.9001465,131.921872 Z" id="Path-34" fill="#F9B000"></path>
        <path d="M59.8356934,6.93774414 C59.8356934,6.93774414 58.5661621,15.3989258 68.1896973,28.7675781 C68.8037109,30.0788574 86.2602539,58.0913086 86.2602539,58.0913086 L107.717041,23.2744141 C107.717041,23.2744141 112.362303,16.3652344 112.112305,7.02636719 C112.112549,6.97998047 59.8356934,6.93774414 59.8356934,6.93774414 Z" id="Path-35" fill="#F9B000"></path>
    </g>
</svg>