<?xml version="1.0" encoding="UTF-8"?>
<svg width="663px" height="116px" viewBox="0 0 663 116" version="1.1" xmlns="http://www.w3.org/2000/svg" xmlns:xlink="http://www.w3.org/1999/xlink" style="background: #FFFFFF;">
    <!-- Generator: Sketch 45.2 (43514) - http://www.bohemiancoding.com/sketch -->
    <title>yw_Schriftmarke 3</title>
    <desc>Created with Sketch.</desc>
    <defs></defs>
    <g id="Page-1" stroke="none" stroke-width="1" fill="none" fill-rule="evenodd">
        <path d="M41.0195312,36.703125 L48.9296875,23.9414062 C50.1015684,22.0429593 50.6875,20.2617271 50.6875,18.5976562 C50.6875,18.2695296 50.6523441,17.777347 50.5820312,17.1210938 L63.5195312,17.1210938 C62.5585889,17.7539094 61.7792999,18.4511681 61.1816406,19.2128906 C60.5839814,19.9746132 59.6757873,21.433583 58.4570312,23.5898438 L44.1132812,46.8632812 L44.1132812,58.0078125 C44.2070317,61.1484532 44.8749938,63.515617 46.1171875,65.109375 L23.8632812,65.109375 C25.105475,63.515617 25.773437,61.1484532 25.8671875,58.0078125 L25.8671875,46.8632812 L11.9453125,24.75 C9.83592695,21.2812327 8.05469477,18.7382893 6.6015625,17.1210938 L30.7890625,17.1210938 C30.7890625,18.4336003 30.9589827,19.5703077 31.2988281,20.53125 C31.6386736,21.4921923 32.312495,22.7812419 33.3203125,24.3984375 L41.0195312,36.703125 Z M76.8085938,17.1210938 L104.6875,17.1210938 C106.539072,17.1210938 108.332023,17.4726527 110.066406,18.1757812 C111.80079,18.8789098 113.195307,19.828119 114.25,21.0234375 C116.031259,22.9218845 116.933594,26.2031017 116.957031,30.8671875 L116.957031,51.3632812 C116.933594,56.0273671 116.031259,59.3085843 114.25,61.2070312 C113.195307,62.4023497 111.80079,63.351559 110.066406,64.0546875 C108.332023,64.757816 106.539072,65.109375 104.6875,65.109375 L76.8085938,65.109375 C74.957022,65.109375 73.1640712,64.757816 71.4296875,64.0546875 C69.6953038,63.351559 68.3007865,62.4023497 67.2460938,61.2070312 C65.4648348,59.3085843 64.5625001,56.0273671 64.5390625,51.3632812 L64.5390625,30.8671875 C64.5625001,26.2031017 65.4648348,22.9218845 67.2460938,21.0234375 C68.3007865,19.828119 69.6953038,18.8789098 71.4296875,18.1757812 C73.1640712,17.4726527 74.957022,17.1210938 76.8085938,17.1210938 L76.8085938,17.1210938 Z M82.7851562,30.65625 L82.7851562,51.5742188 C82.7851562,53.6601667 82.984373,55.054684 83.3828125,55.7578125 C84.1093786,56.7421924 85.4921773,57.2226564 87.53125,57.1992188 L93.9648438,57.1992188 C95.9336036,57.1992188 97.2167939,56.8476598 97.8144531,56.1445312 C98.4121124,55.4414027 98.7109375,53.9179805 98.7109375,51.5742188 L98.7109375,30.65625 C98.7109375,28.5703021 98.5117207,27.1757848 98.1132812,26.4726562 C97.3867151,25.4882763 96.0039164,25.0078124 93.9648438,25.03125 L86.8632812,25.03125 C85.2460857,25.03125 84.1621121,25.4121056 83.6113281,26.1738281 C83.0605441,26.9355507 82.7851562,28.4296764 82.7851562,30.65625 L82.7851562,30.65625 Z M144.097656,17.1210938 C142.855463,18.7148517 142.1875,21.0820155 142.09375,24.2226562 L142.09375,51.5742188 C142.09375,53.6601667 142.292967,55.054684 142.691406,55.7578125 C143.417972,56.7421924 144.800771,57.2226564 146.839844,57.1992188 L161.640625,57.1992188 C163.609385,57.1992188 164.892575,56.8476598 165.490234,56.1445312 C166.087894,55.4414027 166.386719,53.9179805 166.386719,51.5742188 L166.386719,24.2226562 C166.292968,21.1054532 165.625006,18.7382893 164.382812,17.1210938 L176.300781,17.1210938 C175.058588,18.7148517 174.390625,21.0820155 174.296875,24.2226562 L174.296875,51.3632812 C174.296875,53.8711063 174.08594,55.8222587 173.664062,57.2167969 C173.242185,58.6113351 172.468756,59.9413999 171.34375,61.2070312 C169.117176,63.7617315 166.011739,65.0624998 162.027344,65.109375 L136.117188,65.109375 C132.132793,65.0624998 129.027355,63.7617315 126.800781,61.2070312 C125.675776,59.9648375 124.902346,58.640632 124.480469,57.234375 C124.058592,55.828118 123.847656,53.8711063 123.847656,51.3632812 L123.847656,24.2226562 C123.753906,21.1523284 123.085944,18.7851646 121.84375,17.1210938 L144.097656,17.1210938 Z M190.503906,65.109375 C191.7461,63.515617 192.414062,61.1484532 192.507812,58.0078125 L192.507812,25.03125 L184.035156,25.03125 C182.32421,25.03125 181.058598,25.1249991 180.238281,25.3125 C179.417965,25.5000009 178.550786,25.8867158 177.636719,26.4726562 L179.078125,17.1210938 L224.183594,17.1210938 L225.625,26.4726562 C224.710933,25.8867158 223.843754,25.5000009 223.023438,25.3125 C222.203121,25.1249991 220.937509,25.03125 219.226562,25.03125 L210.753906,25.03125 L210.753906,58.0078125 C210.847657,61.1484532 211.515619,63.515617 212.757812,65.109375 L190.503906,65.109375 Z M262.152344,44.5078125 L248.230469,44.5078125 L248.230469,57.9726562 C248.324219,61.113297 248.992181,63.4921794 250.234375,65.109375 L227.980469,65.109375 C229.222662,63.4453042 229.890625,61.0664217 229.984375,57.9726562 L229.984375,24.2226562 C229.890625,21.1523284 229.222662,18.7851646 227.980469,17.1210938 L250.234375,17.1210938 C248.992181,18.7148517 248.324219,21.0820155 248.230469,24.2226562 L248.230469,36.5976562 L262.152344,36.5976562 L262.152344,24.2226562 C262.058593,21.0820155 261.390631,18.7148517 260.148438,17.1210938 L282.402344,17.1210938 C281.16015,18.7148517 280.492188,21.0820155 280.398438,24.2226562 L280.398438,57.9726562 C280.492188,61.113297 281.16015,63.4921794 282.402344,65.109375 L260.148438,65.109375 C261.390631,63.4921794 262.058593,61.113297 262.152344,57.9726562 L262.152344,44.5078125 Z M324.132812,33.3632812 L315.871094,65.109375 L297.976562,65.109375 L287.21875,24.4335938 C286.656247,22.3476458 286.20508,20.888676 285.865234,20.0566406 C285.525389,19.2246052 284.980473,18.2460994 284.230469,17.1210938 L306.167969,17.1210938 C305.722654,18.3632875 305.5,19.4648389 305.5,20.4257812 C305.5,21.5976621 305.722654,23.0742098 306.167969,24.8554688 L312.144531,48.1992188 L320.230469,17.1210938 L339.039062,17.1210938 L347.265625,48.1992188 L353.171875,25.0664062 C353.593752,23.4492107 353.804688,21.9023511 353.804688,20.4257812 C353.804688,19.3476509 353.593752,18.2460994 353.171875,17.1210938 L364.667969,17.1210938 C363.824215,18.0351608 363.226564,18.9023396 362.875,19.7226562 C362.523436,20.5429729 362.031253,22.1835814 361.398438,24.6445312 L350.851562,65.109375 L332.535156,65.109375 L324.132812,33.3632812 Z M385.726562,25.03125 L385.726562,36.6679688 L400.421875,36.6679688 C403.351577,36.6679688 405.624992,36.3046911 407.242188,35.578125 L407.242188,45.84375 C406.281245,45.046871 404.464857,44.6250002 401.792969,44.578125 L385.726562,44.578125 L385.726562,57.1992188 L403.515625,57.1992188 C405.132821,57.1992188 407.406235,56.648443 410.335938,55.546875 L408.753906,65.109375 L365.476562,65.109375 C366.718756,63.4453042 367.386718,61.0781404 367.480469,58.0078125 L367.480469,24.2226562 C367.386718,21.1523284 366.718756,18.7851646 365.476562,17.1210938 L407.734375,17.1210938 L409.140625,26.1210938 C407.687493,25.6289038 406.556645,25.3300787 405.748047,25.2246094 C404.939449,25.1191401 403.246107,25.0546876 400.667969,25.03125 L385.726562,25.03125 Z M453.613281,40.2539062 C456.121106,40.2539062 458.019525,40.3886705 459.308594,40.6582031 C460.597663,40.9277357 461.687496,41.414059 462.578125,42.1171875 C464.218758,43.4062564 465.050781,45.5507662 465.074219,48.5507812 L465.074219,55.1601562 C465.003906,58.5351731 463.996103,61.0663978 462.050781,62.7539062 C461.042964,63.6445357 459.847663,64.2597639 458.464844,64.5996094 C457.082024,64.9394548 455.031264,65.109375 452.3125,65.109375 L413.429688,65.109375 C414.671881,63.4453042 415.339843,61.0781404 415.433594,58.0078125 L415.433594,24.2226562 C415.339843,21.1523284 414.671881,18.7851646 413.429688,17.1210938 L452.3125,17.1210938 C455.031264,17.1210938 457.076165,17.2851546 458.447266,17.6132812 C459.818366,17.9414079 461.019526,18.5624954 462.050781,19.4765625 C463.996103,21.1640709 465.003906,23.6952956 465.074219,27.0703125 L465.074219,31.8515625 C465.074219,33.7500095 464.869143,35.1738234 464.458984,36.1230469 C464.048826,37.0722704 463.292974,37.8515595 462.191406,38.4609375 C460.550773,39.3281293 457.691427,39.9257796 453.613281,40.2539062 L453.613281,40.2539062 Z M433.679688,36.7382812 L443.628906,36.7382812 C445.128914,36.7382812 446.130857,36.4277375 446.634766,35.8066406 C447.138674,35.1855438 447.390625,33.949228 447.390625,32.0976562 L447.390625,30.1640625 C447.390625,28.1249898 447.167971,26.7597691 446.722656,26.0683594 C446.277342,25.3769497 445.398444,25.03125 444.085938,25.03125 L433.679688,25.03125 L433.679688,36.7382812 Z M433.679688,57.1992188 L442.644531,57.1992188 C444.683604,57.1992188 446.066403,56.8125039 446.792969,56.0390625 C447.050783,55.7343735 447.214843,55.3828145 447.285156,54.984375 C447.355469,54.5859355 447.390625,53.7656312 447.390625,52.5234375 L447.390625,50.2734375 C447.390625,48.6093667 447.355469,47.4960966 447.285156,46.9335938 C447.214843,46.3710909 447.039064,45.890627 446.757812,45.4921875 C446.499999,45.1171856 446.160158,44.882813 445.738281,44.7890625 C445.316404,44.695312 444.449225,44.6484375 443.136719,44.6484375 L433.679688,44.6484375 L433.679688,57.1992188 Z M473.019531,52.2773438 L491.089844,52.2773438 L491.089844,65.109375 L473.019531,65.109375 L473.019531,52.2773438 Z M523.644531,17.1210938 L542.101562,55.3710938 L542.101562,24.2226562 C542.007812,21.0820155 541.33985,18.7148517 540.097656,17.1210938 L552.015625,17.1210938 C550.773431,18.7148517 550.105469,21.0820155 550.011719,24.2226562 L550.011719,65.109375 L526.808594,65.109375 L507.472656,26.0507812 L507.472656,58.0078125 C507.566407,61.1250156 508.234369,63.4921794 509.476562,65.109375 L497.558594,65.109375 C498.800787,63.4453042 499.46875,61.0781404 499.5625,58.0078125 L499.5625,24.2226562 C499.46875,21.1523284 498.800787,18.7851646 497.558594,17.1210938 L523.644531,17.1210938 Z M576.097656,25.03125 L576.097656,36.6679688 L590.792969,36.6679688 C593.722671,36.6679688 595.996086,36.3046911 597.613281,35.578125 L597.613281,45.84375 C596.652339,45.046871 594.835951,44.6250002 592.164062,44.578125 L576.097656,44.578125 L576.097656,57.1992188 L593.886719,57.1992188 C595.503914,57.1992188 597.777329,56.648443 600.707031,55.546875 L599.125,65.109375 L555.847656,65.109375 C557.08985,63.4453042 557.757812,61.0781404 557.851562,58.0078125 L557.851562,24.2226562 C557.757812,21.1523284 557.08985,18.7851646 555.847656,17.1210938 L598.105469,17.1210938 L599.511719,26.1210938 C598.058586,25.6289038 596.927738,25.3300787 596.119141,25.2246094 C595.310543,25.1191401 593.6172,25.0546876 591.039062,25.03125 L576.097656,25.03125 Z M614.277344,65.109375 C615.519537,63.515617 616.1875,61.1484532 616.28125,58.0078125 L616.28125,25.03125 L607.808594,25.03125 C606.097648,25.03125 604.832035,25.1249991 604.011719,25.3125 C603.191402,25.5000009 602.324223,25.8867158 601.410156,26.4726562 L602.851562,17.1210938 L647.957031,17.1210938 L649.398438,26.4726562 C648.48437,25.8867158 647.617192,25.5000009 646.796875,25.3125 C645.976558,25.1249991 644.710946,25.03125 643,25.03125 L634.527344,25.03125 L634.527344,58.0078125 C634.621094,61.1484532 635.289056,63.515617 636.53125,65.109375 L614.277344,65.109375 Z" id="YOUTHWEB.NET-3" fill="#FFFFFF"></path>
        <path d="M279.878906,91.2421875 L283.007812,82.1132812 L291.210938,82.1132812 C290.796873,82.6445339 290.574219,83.4335885 290.542969,84.4804688 L290.542969,95.7421875 C290.574219,96.7890677 290.796873,97.5781223 291.210938,98.109375 L283.792969,98.109375 C284.207033,97.5781223 284.429687,96.7890677 284.460938,95.7421875 L284.460938,85.9335938 L280.3125,98.109375 L276,98.109375 L271.921875,85.9335938 L271.921875,95.7421875 C271.953125,96.7890677 272.175779,97.5781223 272.589844,98.109375 L268.617188,98.109375 C269.031252,97.5546847 269.253906,96.7656301 269.285156,95.7421875 L269.285156,84.4804688 C269.253906,83.4570261 269.031252,82.6679715 268.617188,82.1132812 L276.820312,82.1132812 L279.878906,91.2421875 Z M303.035156,88.640625 L305.671875,84.3867188 C306.062502,83.7539031 306.257812,83.160159 306.257812,82.6054688 C306.257812,82.4960932 306.246094,82.3320323 306.222656,82.1132812 L310.535156,82.1132812 C310.214842,82.3242198 309.955079,82.5566394 309.755859,82.8105469 C309.55664,83.0644544 309.253908,83.5507777 308.847656,84.2695312 L304.066406,92.0273438 L304.066406,95.7421875 C304.097656,96.7890677 304.32031,97.5781223 304.734375,98.109375 L297.316406,98.109375 C297.730471,97.5781223 297.953125,96.7890677 297.984375,95.7421875 L297.984375,92.0273438 L293.34375,84.65625 C292.640621,83.4999942 292.046877,82.6523464 291.5625,82.1132812 L299.625,82.1132812 C299.625,82.5507834 299.68164,82.9296859 299.794922,83.25 C299.908204,83.5703141 300.132811,83.9999973 300.46875,84.5390625 L303.035156,88.640625 Z M330.65625,82.1132812 L331.21875,85.40625 C330.820311,85.1249986 330.439455,84.9453129 330.076172,84.8671875 C329.712889,84.7890621 329.097661,84.75 328.230469,84.75 L324.878906,84.75 C324.394529,84.75 324.058595,84.7734373 323.871094,84.8203125 C323.683593,84.8671877 323.527344,84.964843 323.402344,85.1132812 C323.277343,85.2617195 323.195313,85.437499 323.15625,85.640625 C323.117187,85.843751 323.097656,86.2226535 323.097656,86.7773438 L323.097656,93.5625 C323.097656,94.3125038 323.240233,94.8183581 323.525391,95.0800781 C323.810548,95.3417982 324.367183,95.4726562 325.195312,95.4726562 L328.359375,95.4726562 C329.570319,95.4804688 330.58984,95.3125017 331.417969,94.96875 L330.925781,98.109375 L321.105469,98.109375 C319.777337,98.0937499 318.742191,97.6601605 318,96.8085938 C317.624998,96.3945292 317.367188,95.9531273 317.226562,95.484375 C317.085937,95.0156227 317.015625,94.3632854 317.015625,93.5273438 L317.015625,86.6953125 C317.015625,85.8593708 317.085937,85.2070336 317.226562,84.7382812 C317.367188,84.2695289 317.624998,83.8281271 318,83.4140625 C318.742191,82.5624957 319.777337,82.1289063 321.105469,82.1132812 L330.65625,82.1132812 Z M344.25,91.2421875 L339.609375,91.2421875 L339.609375,95.7304688 C339.640625,96.777349 339.863279,97.5703098 340.277344,98.109375 L332.859375,98.109375 C333.27344,97.5546847 333.496094,96.7617239 333.527344,95.7304688 L333.527344,84.4804688 C333.496094,83.4570261 333.27344,82.6679715 332.859375,82.1132812 L340.277344,82.1132812 C339.863279,82.6445339 339.640625,83.4335885 339.609375,84.4804688 L339.609375,88.6054688 L344.25,88.6054688 L344.25,84.4804688 C344.21875,83.4335885 343.996096,82.6445339 343.582031,82.1132812 L351,82.1132812 C350.585935,82.6445339 350.363281,83.4335885 350.332031,84.4804688 L350.332031,95.7304688 C350.363281,96.777349 350.585935,97.5703098 351,98.109375 L343.582031,98.109375 C343.996096,97.5703098 344.21875,96.777349 344.25,95.7304688 L344.25,91.2421875 Z M361.230469,91.2890625 L359.355469,91.2890625 L359.355469,95.7421875 C359.386719,96.7812552 359.609373,97.5703098 360.023438,98.109375 L352.605469,98.109375 C353.019533,97.5546847 353.242187,96.7656301 353.273438,95.7421875 L353.273438,84.4804688 C353.242187,83.4570261 353.019533,82.6679715 352.605469,82.1132812 L365.765625,82.1132812 C366.67188,82.1132812 367.355466,82.1679682 367.816406,82.2773438 C368.277346,82.3867193 368.67578,82.5937485 369.011719,82.8984375 C369.660159,83.4609403 369.996094,84.3046819 370.019531,85.4296875 L370.019531,88.875 C370.019531,89.6015661 369.925782,90.1289046 369.738281,90.4570312 C369.402342,91.0273466 368.851566,91.3125 368.085938,91.3125 C367.984374,91.3125 367.843751,91.3046876 367.664062,91.2890625 L369.855469,95.9296875 C370.238283,96.7656292 370.648435,97.4921844 371.085938,98.109375 L364.054688,98.109375 L361.230469,91.2890625 Z M359.355469,88.6523438 L362.753906,88.6523438 C363.277346,88.6523438 363.617187,88.5664071 363.773438,88.3945312 C363.929688,88.2226554 364.007812,87.8437529 364.007812,87.2578125 L364.007812,86.4609375 C364.007812,85.6718711 363.933594,85.189454 363.785156,85.0136719 C363.636718,84.8378897 363.238284,84.75 362.589844,84.75 L359.355469,84.75 L359.355469,88.6523438 Z M379.300781,98.109375 L371.882812,98.109375 C372.296877,97.5546847 372.519531,96.7656301 372.550781,95.7421875 L372.550781,84.4804688 C372.519531,83.4570261 372.296877,82.6679715 371.882812,82.1132812 L379.300781,82.1132812 C378.886717,82.6445339 378.664063,83.4335885 378.632812,84.4804688 L378.632812,95.7421875 C378.664063,96.7890677 378.886717,97.5781223 379.300781,98.109375 L379.300781,98.109375 Z M395.414062,82.1132812 L395.976562,85.3710938 C395.374997,84.9492166 394.753909,84.7382812 394.113281,84.7382812 L393.398438,84.75 L387.867188,84.75 C387.460935,84.75 387.177735,84.8105463 387.017578,84.9316406 C386.857421,85.052735 386.777344,85.2695297 386.777344,85.5820312 L386.777344,86.1328125 C386.777344,86.5468771 386.853515,86.8124994 387.005859,86.9296875 C387.158204,87.0468756 387.50781,87.1054688 388.054688,87.1054688 L392.003906,87.1054688 C393.019536,87.1054688 393.749998,87.1542964 394.195312,87.2519531 C394.640627,87.3496099 395.015623,87.5429673 395.320312,87.8320312 C395.921878,88.378909 396.230469,89.2421816 396.246094,90.421875 L396.246094,94.7929688 C396.214844,95.8945368 395.863285,96.7382783 395.191406,97.3242188 C394.824217,97.6367203 394.431643,97.8457026 394.013672,97.9511719 C393.595701,98.0566412 392.925786,98.109375 392.003906,98.109375 L381.398438,98.109375 L380.835938,94.9101562 C381.281252,95.152345 381.707029,95.3066403 382.113281,95.3730469 C382.519533,95.4394535 383.249995,95.4726562 384.304688,95.4726562 L388.957031,95.4726562 C389.511722,95.4726562 389.843749,95.4531252 389.953125,95.4140625 C390.085938,95.3515622 390.173828,95.2695318 390.216797,95.1679688 C390.259766,95.0664057 390.28125,94.8828138 390.28125,94.6171875 L390.28125,94.1132812 C390.28125,93.7304668 390.232422,93.4726569 390.134766,93.3398438 C390.037109,93.2070306 389.843751,93.140625 389.554688,93.140625 L385.03125,93.140625 C384.070308,93.140625 383.351565,93.0937505 382.875,93 C382.398435,92.9062495 382.01172,92.7343763 381.714844,92.484375 C381.113278,91.97656 380.804688,91.0898501 380.789062,89.8242188 L380.789062,85.4296875 C380.820313,84.3281195 381.171872,83.4843779 381.84375,82.8984375 C382.210939,82.5781234 382.603514,82.367188 383.021484,82.265625 C383.439455,82.164062 384.10937,82.1132812 385.03125,82.1132812 L395.414062,82.1132812 Z M401.71875,98.109375 C402.132815,97.5781223 402.355469,96.7890677 402.386719,95.7421875 L402.386719,84.75 L399.5625,84.75 C398.992185,84.75 398.570314,84.7812497 398.296875,84.84375 C398.023436,84.9062503 397.734377,85.0351553 397.429687,85.2304688 L397.910156,82.1132812 L412.945312,82.1132812 L413.425781,85.2304688 C413.121092,85.0351553 412.832033,84.9062503 412.558594,84.84375 C412.285155,84.7812497 411.863284,84.75 411.292969,84.75 L408.46875,84.75 L408.46875,95.7421875 C408.5,96.7890677 408.722654,97.5781223 409.136719,98.109375 L401.71875,98.109375 Z M421.628906,98.109375 L414.210938,98.109375 C414.625002,97.5546847 414.847656,96.7656301 414.878906,95.7421875 L414.878906,84.4804688 C414.847656,83.4570261 414.625002,82.6679715 414.210938,82.1132812 L421.628906,82.1132812 C421.214842,82.6445339 420.992188,83.4335885 420.960938,84.4804688 L420.960938,95.7421875 C420.992188,96.7890677 421.214842,97.5781223 421.628906,98.109375 L421.628906,98.109375 Z M428.554688,82.1132812 L435.609375,82.1132812 L441.222656,96.2226562 C441.527345,96.9101597 441.941404,97.5390596 442.464844,98.109375 L434.414062,98.109375 C434.679689,97.7968734 434.8125,97.4414082 434.8125,97.0429688 C434.8125,96.6054666 434.679689,96.0859405 434.414062,95.484375 L433.675781,93.7734375 L427.101562,93.7734375 L426.105469,95.9648438 C425.917968,96.3867209 425.824219,96.7539047 425.824219,97.0664062 C425.824219,97.3320326 425.92578,97.6796854 426.128906,98.109375 L421.640625,98.109375 C422.343754,97.3203086 422.980466,96.3164123 423.550781,95.0976562 L429.199219,83.0625 C429.035155,82.7031232 428.820314,82.3867201 428.554688,82.1132812 L428.554688,82.1132812 Z M432.597656,91.1953125 L430.546875,86.2382812 L428.308594,91.1953125 L432.597656,91.1953125 Z M451.394531,82.1132812 L457.546875,94.8632812 L457.546875,84.4804688 C457.515625,83.4335885 457.292971,82.6445339 456.878906,82.1132812 L460.851562,82.1132812 C460.437498,82.6445339 460.214844,83.4335885 460.183594,84.4804688 L460.183594,98.109375 L452.449219,98.109375 L446.003906,85.0898438 L446.003906,95.7421875 C446.035156,96.7812552 446.25781,97.5703098 446.671875,98.109375 L442.699219,98.109375 C443.113283,97.5546847 443.335937,96.7656301 443.367187,95.7421875 L443.367187,84.4804688 C443.335937,83.4570261 443.113283,82.6679715 442.699219,82.1132812 L451.394531,82.1132812 Z M482.015625,82.1132812 L482.578125,85.40625 C482.179686,85.1249986 481.79883,84.9453129 481.435547,84.8671875 C481.072264,84.7890621 480.457036,84.75 479.589844,84.75 L476.238281,84.75 C475.753904,84.75 475.41797,84.7734373 475.230469,84.8203125 C475.042968,84.8671877 474.886719,84.964843 474.761719,85.1132812 C474.636718,85.2617195 474.554688,85.437499 474.515625,85.640625 C474.476562,85.843751 474.457031,86.2226535 474.457031,86.7773438 L474.457031,93.5625 C474.457031,94.3125038 474.599608,94.8183581 474.884766,95.0800781 C475.169923,95.3417982 475.726558,95.4726562 476.554687,95.4726562 L479.71875,95.4726562 C480.929694,95.4804688 481.949215,95.3125017 482.777344,94.96875 L482.285156,98.109375 L472.464844,98.109375 C471.136712,98.0937499 470.101566,97.6601605 469.359375,96.8085938 C468.984373,96.3945292 468.726563,95.9531273 468.585937,95.484375 C468.445312,95.0156227 468.375,94.3632854 468.375,93.5273438 L468.375,86.6953125 C468.375,85.8593708 468.445312,85.2070336 468.585937,84.7382812 C468.726563,84.2695289 468.984373,83.8281271 469.359375,83.4140625 C470.101566,82.5624957 471.136712,82.1289063 472.464844,82.1132812 L482.015625,82.1132812 Z M488.613281,82.1132812 L497.90625,82.1132812 C498.523441,82.1132812 499.121091,82.2304676 499.699219,82.4648438 C500.277347,82.6992199 500.742186,83.015623 501.09375,83.4140625 C501.687503,84.0468782 501.988281,85.1406172 501.996094,86.6953125 L501.996094,93.5273438 C501.988281,95.082039 501.687503,96.1757781 501.09375,96.8085938 C500.742186,97.2070332 500.277347,97.5234363 499.699219,97.7578125 C499.121091,97.9921887 498.523441,98.109375 497.90625,98.109375 L488.613281,98.109375 C487.996091,98.109375 487.39844,97.9921887 486.820312,97.7578125 C486.242185,97.5234363 485.777346,97.2070332 485.425781,96.8085938 C484.832028,96.1757781 484.53125,95.082039 484.523437,93.5273438 L484.523437,86.6953125 C484.53125,85.1406172 484.832028,84.0468782 485.425781,83.4140625 C485.777346,83.015623 486.242185,82.6992199 486.820312,82.4648438 C487.39844,82.2304676 487.996091,82.1132812 488.613281,82.1132812 L488.613281,82.1132812 Z M490.605469,86.625 L490.605469,93.5976562 C490.605469,94.2929722 490.671874,94.7578113 490.804687,94.9921875 C491.046876,95.3203141 491.507809,95.4804688 492.1875,95.4726562 L494.332031,95.4726562 C494.988285,95.4726562 495.416015,95.3554699 495.615234,95.1210938 C495.814454,94.8867176 495.914062,94.3789102 495.914062,93.5976562 L495.914062,86.625 C495.914062,85.929684 495.847657,85.4648449 495.714844,85.2304688 C495.472655,84.9023421 495.011722,84.7421875 494.332031,84.75 L491.964844,84.75 C491.425779,84.75 491.064454,84.8769519 490.880859,85.1308594 C490.697265,85.3847669 490.605469,85.8828088 490.605469,86.625 L490.605469,86.625 Z M512.285156,82.1132812 L518.4375,94.8632812 L518.4375,84.4804688 C518.40625,83.4335885 518.183596,82.6445339 517.769531,82.1132812 L521.742188,82.1132812 C521.328123,82.6445339 521.105469,83.4335885 521.074219,84.4804688 L521.074219,98.109375 L513.339844,98.109375 L506.894531,85.0898438 L506.894531,95.7421875 C506.925781,96.7812552 507.148435,97.5703098 507.5625,98.109375 L503.589844,98.109375 C504.003908,97.5546847 504.226562,96.7656301 504.257812,95.7421875 L504.257812,84.4804688 C504.226562,83.4570261 504.003908,82.6679715 503.589844,82.1132812 L512.285156,82.1132812 Z M531.480469,82.1132812 L537.632812,94.8632812 L537.632812,84.4804688 C537.601562,83.4335885 537.378908,82.6445339 536.964844,82.1132812 L540.9375,82.1132812 C540.523435,82.6445339 540.300781,83.4335885 540.269531,84.4804688 L540.269531,98.109375 L532.535156,98.109375 L526.089844,85.0898438 L526.089844,95.7421875 C526.121094,96.7812552 526.343748,97.5703098 526.757812,98.109375 L522.785156,98.109375 C523.199221,97.5546847 523.421875,96.7656301 523.453125,95.7421875 L523.453125,84.4804688 C523.421875,83.4570261 523.199221,82.6679715 522.785156,82.1132812 L531.480469,82.1132812 Z M548.964844,84.75 L548.964844,88.6289062 L553.863281,88.6289062 C554.839849,88.6289062 555.597654,88.5078137 556.136719,88.265625 L556.136719,91.6875 C555.816405,91.4218737 555.210942,91.2812501 554.320312,91.265625 L548.964844,91.265625 L548.964844,95.4726562 L554.894531,95.4726562 C555.433596,95.4726562 556.191401,95.2890643 557.167969,94.921875 L556.640625,98.109375 L542.214844,98.109375 C542.628908,97.5546847 542.851562,96.7656301 542.882812,95.7421875 L542.882812,84.4804688 C542.851562,83.4570261 542.628908,82.6679715 542.214844,82.1132812 L556.300781,82.1132812 L556.769531,85.1132812 C556.285154,84.9492179 555.908204,84.8496096 555.638672,84.8144531 C555.369139,84.7792967 554.804692,84.7578125 553.945312,84.75 L548.964844,84.75 Z M572.085937,82.1132812 L572.648437,85.40625 C572.249998,85.1249986 571.869142,84.9453129 571.505859,84.8671875 C571.142576,84.7890621 570.527348,84.75 569.660156,84.75 L566.308594,84.75 C565.824216,84.75 565.488282,84.7734373 565.300781,84.8203125 C565.11328,84.8671877 564.957032,84.964843 564.832031,85.1132812 C564.707031,85.2617195 564.625,85.437499 564.585937,85.640625 C564.546875,85.843751 564.527344,86.2226535 564.527344,86.7773438 L564.527344,93.5625 C564.527344,94.3125038 564.66992,94.8183581 564.955078,95.0800781 C565.240236,95.3417982 565.796871,95.4726562 566.625,95.4726562 L569.789062,95.4726562 C571.000006,95.4804688 572.019527,95.3125017 572.847656,94.96875 L572.355469,98.109375 L562.535156,98.109375 C561.207025,98.0937499 560.171879,97.6601605 559.429687,96.8085938 C559.054686,96.3945292 558.796876,95.9531273 558.65625,95.484375 C558.515624,95.0156227 558.445312,94.3632854 558.445312,93.5273438 L558.445312,86.6953125 C558.445312,85.8593708 558.515624,85.2070336 558.65625,84.7382812 C558.796876,84.2695289 559.054686,83.8281271 559.429687,83.4140625 C560.171879,82.5624957 561.207025,82.1289063 562.535156,82.1132812 L572.085937,82.1132812 Z M577.699219,98.109375 C578.113283,97.5781223 578.335937,96.7890677 578.367187,95.7421875 L578.367187,84.75 L575.542969,84.75 C574.972653,84.75 574.550783,84.7812497 574.277344,84.84375 C574.003905,84.9062503 573.714845,85.0351553 573.410156,85.2304688 L573.890625,82.1132812 L588.925781,82.1132812 L589.40625,85.2304688 C589.101561,85.0351553 588.812501,84.9062503 588.539062,84.84375 C588.265624,84.7812497 587.843753,84.75 587.273437,84.75 L584.449219,84.75 L584.449219,95.7421875 C584.480469,96.7890677 584.703123,97.5781223 585.117187,98.109375 L577.699219,98.109375 Z M597.609375,98.109375 L590.191406,98.109375 C590.605471,97.5546847 590.828125,96.7656301 590.859375,95.7421875 L590.859375,84.4804688 C590.828125,83.4570261 590.605471,82.6679715 590.191406,82.1132812 L597.609375,82.1132812 C597.19531,82.6445339 596.972656,83.4335885 596.941406,84.4804688 L596.941406,95.7421875 C596.972656,96.7890677 597.19531,97.5781223 597.609375,98.109375 L597.609375,98.109375 Z M603.550781,82.1132812 L612.84375,82.1132812 C613.460941,82.1132812 614.058591,82.2304676 614.636719,82.4648438 C615.214847,82.6992199 615.679686,83.015623 616.03125,83.4140625 C616.625003,84.0468782 616.925781,85.1406172 616.933594,86.6953125 L616.933594,93.5273438 C616.925781,95.082039 616.625003,96.1757781 616.03125,96.8085938 C615.679686,97.2070332 615.214847,97.5234363 614.636719,97.7578125 C614.058591,97.9921887 613.460941,98.109375 612.84375,98.109375 L603.550781,98.109375 C602.933591,98.109375 602.33594,97.9921887 601.757812,97.7578125 C601.179685,97.5234363 600.714846,97.2070332 600.363281,96.8085938 C599.769528,96.1757781 599.46875,95.082039 599.460937,93.5273438 L599.460937,86.6953125 C599.46875,85.1406172 599.769528,84.0468782 600.363281,83.4140625 C600.714846,83.015623 601.179685,82.6992199 601.757812,82.4648438 C602.33594,82.2304676 602.933591,82.1132812 603.550781,82.1132812 L603.550781,82.1132812 Z M605.542969,86.625 L605.542969,93.5976562 C605.542969,94.2929722 605.609374,94.7578113 605.742187,94.9921875 C605.984376,95.3203141 606.445309,95.4804688 607.125,95.4726562 L609.269531,95.4726562 C609.925785,95.4726562 610.353515,95.3554699 610.552734,95.1210938 C610.751954,94.8867176 610.851562,94.3789102 610.851562,93.5976562 L610.851562,86.625 C610.851562,85.929684 610.785157,85.4648449 610.652344,85.2304688 C610.410155,84.9023421 609.949222,84.7421875 609.269531,84.75 L606.902344,84.75 C606.363279,84.75 606.001954,84.8769519 605.818359,85.1308594 C605.634765,85.3847669 605.542969,85.8828088 605.542969,86.625 L605.542969,86.625 Z M627.222656,82.1132812 L633.375,94.8632812 L633.375,84.4804688 C633.34375,83.4335885 633.121096,82.6445339 632.707031,82.1132812 L636.679687,82.1132812 C636.265623,82.6445339 636.042969,83.4335885 636.011719,84.4804688 L636.011719,98.109375 L628.277344,98.109375 L621.832031,85.0898438 L621.832031,95.7421875 C621.863281,96.7812552 622.085935,97.5703098 622.5,98.109375 L618.527344,98.109375 C618.941408,97.5546847 619.164062,96.7656301 619.195312,95.7421875 L619.195312,84.4804688 C619.164062,83.4570261 618.941408,82.6679715 618.527344,82.1132812 L627.222656,82.1132812 Z" id="MY-CHRISTIAN-CONNECT-3" fill="#FFFFFF"></path>
    </g>
</svg>