<?xml version="1.0" encoding="UTF-8"?>
<svg width="663px" height="115px" viewBox="0 0 663 115" version="1.1" xmlns="http://www.w3.org/2000/svg" xmlns:xlink="http://www.w3.org/1999/xlink" style="background: #FFFFFF;">
    <!-- Generator: Sketch 45.2 (43514) - http://www.bohemiancoding.com/sketch -->
    <title>yw_Schriftmarke 2</title>
    <desc>Created with Sketch.</desc>
    <defs></defs>
    <g id="Page-1" stroke="none" stroke-width="1" fill="none" fill-rule="evenodd">
        <path d="M41.0195312,36.59375 L48.9296875,23.8320312 C50.1015684,21.9335843 50.6875,20.1523521 50.6875,18.4882812 C50.6875,18.1601546 50.6523441,17.667972 50.5820312,17.0117188 L63.5195312,17.0117188 C62.5585889,17.6445344 61.7792999,18.3417931 61.1816406,19.1035156 C60.5839814,19.8652382 59.6757873,21.324208 58.4570312,23.4804688 L44.1132812,46.7539062 L44.1132812,57.8984375 C44.2070317,61.0390782 44.8749938,63.406242 46.1171875,65 L23.8632812,65 C25.105475,63.406242 25.773437,61.0390782 25.8671875,57.8984375 L25.8671875,46.7539062 L11.9453125,24.640625 C9.83592695,21.1718577 8.05469477,18.6289143 6.6015625,17.0117188 L30.7890625,17.0117188 C30.7890625,18.3242253 30.9589827,19.4609327 31.2988281,20.421875 C31.6386736,21.3828173 32.312495,22.6718669 33.3203125,24.2890625 L41.0195312,36.59375 Z M76.8085938,17.0117188 L104.6875,17.0117188 C106.539072,17.0117188 108.332023,17.3632777 110.066406,18.0664062 C111.80079,18.7695348 113.195307,19.718744 114.25,20.9140625 C116.031259,22.8125095 116.933594,26.0937267 116.957031,30.7578125 L116.957031,51.2539062 C116.933594,55.9179921 116.031259,59.1992093 114.25,61.0976562 C113.195307,62.2929747 111.80079,63.242184 110.066406,63.9453125 C108.332023,64.648441 106.539072,65 104.6875,65 L76.8085938,65 C74.957022,65 73.1640712,64.648441 71.4296875,63.9453125 C69.6953038,63.242184 68.3007865,62.2929747 67.2460938,61.0976562 C65.4648348,59.1992093 64.5625001,55.9179921 64.5390625,51.2539062 L64.5390625,30.7578125 C64.5625001,26.0937267 65.4648348,22.8125095 67.2460938,20.9140625 C68.3007865,19.718744 69.6953038,18.7695348 71.4296875,18.0664062 C73.1640712,17.3632777 74.957022,17.0117188 76.8085938,17.0117188 L76.8085938,17.0117188 Z M82.7851562,30.546875 L82.7851562,51.4648438 C82.7851562,53.5507917 82.984373,54.945309 83.3828125,55.6484375 C84.1093786,56.6328174 85.4921773,57.1132814 87.53125,57.0898438 L93.9648438,57.0898438 C95.9336036,57.0898438 97.2167939,56.7382848 97.8144531,56.0351562 C98.4121124,55.3320277 98.7109375,53.8086055 98.7109375,51.4648438 L98.7109375,30.546875 C98.7109375,28.4609271 98.5117207,27.0664098 98.1132812,26.3632812 C97.3867151,25.3789013 96.0039164,24.8984374 93.9648438,24.921875 L86.8632812,24.921875 C85.2460857,24.921875 84.1621121,25.3027306 83.6113281,26.0644531 C83.0605441,26.8261757 82.7851562,28.3203014 82.7851562,30.546875 L82.7851562,30.546875 Z M144.097656,17.0117188 C142.855463,18.6054767 142.1875,20.9726405 142.09375,24.1132812 L142.09375,51.4648438 C142.09375,53.5507917 142.292967,54.945309 142.691406,55.6484375 C143.417972,56.6328174 144.800771,57.1132814 146.839844,57.0898438 L161.640625,57.0898438 C163.609385,57.0898438 164.892575,56.7382848 165.490234,56.0351562 C166.087894,55.3320277 166.386719,53.8086055 166.386719,51.4648438 L166.386719,24.1132812 C166.292968,20.9960782 165.625006,18.6289143 164.382812,17.0117188 L176.300781,17.0117188 C175.058588,18.6054767 174.390625,20.9726405 174.296875,24.1132812 L174.296875,51.2539062 C174.296875,53.7617313 174.08594,55.7128837 173.664062,57.1074219 C173.242185,58.5019601 172.468756,59.8320249 171.34375,61.0976562 C169.117176,63.6523565 166.011739,64.9531248 162.027344,65 L136.117188,65 C132.132793,64.9531248 129.027355,63.6523565 126.800781,61.0976562 C125.675776,59.8554625 124.902346,58.531257 124.480469,57.125 C124.058592,55.718743 123.847656,53.7617313 123.847656,51.2539062 L123.847656,24.1132812 C123.753906,21.0429534 123.085944,18.6757896 121.84375,17.0117188 L144.097656,17.0117188 Z M190.503906,65 C191.7461,63.406242 192.414062,61.0390782 192.507812,57.8984375 L192.507812,24.921875 L184.035156,24.921875 C182.32421,24.921875 181.058598,25.0156241 180.238281,25.203125 C179.417965,25.3906259 178.550786,25.7773408 177.636719,26.3632812 L179.078125,17.0117188 L224.183594,17.0117188 L225.625,26.3632812 C224.710933,25.7773408 223.843754,25.3906259 223.023438,25.203125 C222.203121,25.0156241 220.937509,24.921875 219.226562,24.921875 L210.753906,24.921875 L210.753906,57.8984375 C210.847657,61.0390782 211.515619,63.406242 212.757812,65 L190.503906,65 Z M262.152344,44.3984375 L248.230469,44.3984375 L248.230469,57.8632812 C248.324219,61.003922 248.992181,63.3828044 250.234375,65 L227.980469,65 C229.222662,63.3359292 229.890625,60.9570467 229.984375,57.8632812 L229.984375,24.1132812 C229.890625,21.0429534 229.222662,18.6757896 227.980469,17.0117188 L250.234375,17.0117188 C248.992181,18.6054767 248.324219,20.9726405 248.230469,24.1132812 L248.230469,36.4882812 L262.152344,36.4882812 L262.152344,24.1132812 C262.058593,20.9726405 261.390631,18.6054767 260.148438,17.0117188 L282.402344,17.0117188 C281.16015,18.6054767 280.492188,20.9726405 280.398438,24.1132812 L280.398438,57.8632812 C280.492188,61.003922 281.16015,63.3828044 282.402344,65 L260.148438,65 C261.390631,63.3828044 262.058593,61.003922 262.152344,57.8632812 L262.152344,44.3984375 Z M324.132812,33.2539062 L315.871094,65 L297.976562,65 L287.21875,24.3242188 C286.656247,22.2382708 286.20508,20.779301 285.865234,19.9472656 C285.525389,19.1152302 284.980473,18.1367244 284.230469,17.0117188 L306.167969,17.0117188 C305.722654,18.2539125 305.5,19.3554639 305.5,20.3164062 C305.5,21.4882871 305.722654,22.9648348 306.167969,24.7460938 L312.144531,48.0898438 L320.230469,17.0117188 L339.039062,17.0117188 L347.265625,48.0898438 L353.171875,24.9570312 C353.593752,23.3398357 353.804688,21.7929761 353.804688,20.3164062 C353.804688,19.2382759 353.593752,18.1367244 353.171875,17.0117188 L364.667969,17.0117188 C363.824215,17.9257858 363.226564,18.7929646 362.875,19.6132812 C362.523436,20.4335979 362.031253,22.0742064 361.398438,24.5351562 L350.851562,65 L332.535156,65 L324.132812,33.2539062 Z M385.726562,24.921875 L385.726562,36.5585938 L400.421875,36.5585938 C403.351577,36.5585938 405.624992,36.1953161 407.242188,35.46875 L407.242188,45.734375 C406.281245,44.937496 404.464857,44.5156252 401.792969,44.46875 L385.726562,44.46875 L385.726562,57.0898438 L403.515625,57.0898438 C405.132821,57.0898438 407.406235,56.539068 410.335938,55.4375 L408.753906,65 L365.476562,65 C366.718756,63.3359292 367.386718,60.9687654 367.480469,57.8984375 L367.480469,24.1132812 C367.386718,21.0429534 366.718756,18.6757896 365.476562,17.0117188 L407.734375,17.0117188 L409.140625,26.0117188 C407.687493,25.5195288 406.556645,25.2207037 405.748047,25.1152344 C404.939449,25.0097651 403.246107,24.9453126 400.667969,24.921875 L385.726562,24.921875 Z M453.613281,40.1445312 C456.121106,40.1445312 458.019525,40.2792955 459.308594,40.5488281 C460.597663,40.8183607 461.687496,41.304684 462.578125,42.0078125 C464.218758,43.2968814 465.050781,45.4413912 465.074219,48.4414062 L465.074219,55.0507812 C465.003906,58.4257981 463.996103,60.9570228 462.050781,62.6445312 C461.042964,63.5351607 459.847663,64.1503889 458.464844,64.4902344 C457.082024,64.8300798 455.031264,65 452.3125,65 L413.429688,65 C414.671881,63.3359292 415.339843,60.9687654 415.433594,57.8984375 L415.433594,24.1132812 C415.339843,21.0429534 414.671881,18.6757896 413.429688,17.0117188 L452.3125,17.0117188 C455.031264,17.0117188 457.076165,17.1757796 458.447266,17.5039062 C459.818366,17.8320329 461.019526,18.4531204 462.050781,19.3671875 C463.996103,21.0546959 465.003906,23.5859206 465.074219,26.9609375 L465.074219,31.7421875 C465.074219,33.6406345 464.869143,35.0644484 464.458984,36.0136719 C464.048826,36.9628954 463.292974,37.7421845 462.191406,38.3515625 C460.550773,39.2187543 457.691427,39.8164046 453.613281,40.1445312 L453.613281,40.1445312 Z M433.679688,36.6289062 L443.628906,36.6289062 C445.128914,36.6289062 446.130857,36.3183625 446.634766,35.6972656 C447.138674,35.0761688 447.390625,33.839853 447.390625,31.9882812 L447.390625,30.0546875 C447.390625,28.0156148 447.167971,26.6503941 446.722656,25.9589844 C446.277342,25.2675747 445.398444,24.921875 444.085938,24.921875 L433.679688,24.921875 L433.679688,36.6289062 Z M433.679688,57.0898438 L442.644531,57.0898438 C444.683604,57.0898438 446.066403,56.7031289 446.792969,55.9296875 C447.050783,55.6249985 447.214843,55.2734395 447.285156,54.875 C447.355469,54.4765605 447.390625,53.6562562 447.390625,52.4140625 L447.390625,50.1640625 C447.390625,48.4999917 447.355469,47.3867216 447.285156,46.8242188 C447.214843,46.2617159 447.039064,45.781252 446.757812,45.3828125 C446.499999,45.0078106 446.160158,44.773438 445.738281,44.6796875 C445.316404,44.585937 444.449225,44.5390625 443.136719,44.5390625 L433.679688,44.5390625 L433.679688,57.0898438 Z M473.019531,52.1679688 L491.089844,52.1679688 L491.089844,65 L473.019531,65 L473.019531,52.1679688 Z M523.644531,17.0117188 L542.101562,55.2617188 L542.101562,24.1132812 C542.007812,20.9726405 541.33985,18.6054767 540.097656,17.0117188 L552.015625,17.0117188 C550.773431,18.6054767 550.105469,20.9726405 550.011719,24.1132812 L550.011719,65 L526.808594,65 L507.472656,25.9414062 L507.472656,57.8984375 C507.566407,61.0156406 508.234369,63.3828044 509.476562,65 L497.558594,65 C498.800787,63.3359292 499.46875,60.9687654 499.5625,57.8984375 L499.5625,24.1132812 C499.46875,21.0429534 498.800787,18.6757896 497.558594,17.0117188 L523.644531,17.0117188 Z M576.097656,24.921875 L576.097656,36.5585938 L590.792969,36.5585938 C593.722671,36.5585938 595.996086,36.1953161 597.613281,35.46875 L597.613281,45.734375 C596.652339,44.937496 594.835951,44.5156252 592.164062,44.46875 L576.097656,44.46875 L576.097656,57.0898438 L593.886719,57.0898438 C595.503914,57.0898438 597.777329,56.539068 600.707031,55.4375 L599.125,65 L555.847656,65 C557.08985,63.3359292 557.757812,60.9687654 557.851562,57.8984375 L557.851562,24.1132812 C557.757812,21.0429534 557.08985,18.6757896 555.847656,17.0117188 L598.105469,17.0117188 L599.511719,26.0117188 C598.058586,25.5195288 596.927738,25.2207037 596.119141,25.1152344 C595.310543,25.0097651 593.6172,24.9453126 591.039062,24.921875 L576.097656,24.921875 Z M614.277344,65 C615.519537,63.406242 616.1875,61.0390782 616.28125,57.8984375 L616.28125,24.921875 L607.808594,24.921875 C606.097648,24.921875 604.832035,25.0156241 604.011719,25.203125 C603.191402,25.3906259 602.324223,25.7773408 601.410156,26.3632812 L602.851562,17.0117188 L647.957031,17.0117188 L649.398438,26.3632812 C648.48437,25.7773408 647.617192,25.3906259 646.796875,25.203125 C645.976558,25.0156241 644.710946,24.921875 643,24.921875 L634.527344,24.921875 L634.527344,57.8984375 C634.621094,61.0390782 635.289056,63.406242 636.53125,65 L614.277344,65 Z" id="YOUTHWEB.NET-2" fill="#F9B000"></path>
        <path d="M279.878906,91.1328125 L283.007812,82.0039062 L291.210938,82.0039062 C290.796873,82.5351589 290.574219,83.3242135 290.542969,84.3710938 L290.542969,95.6328125 C290.574219,96.6796927 290.796873,97.4687473 291.210938,98 L283.792969,98 C284.207033,97.4687473 284.429687,96.6796927 284.460938,95.6328125 L284.460938,85.8242188 L280.3125,98 L276,98 L271.921875,85.8242188 L271.921875,95.6328125 C271.953125,96.6796927 272.175779,97.4687473 272.589844,98 L268.617188,98 C269.031252,97.4453097 269.253906,96.6562551 269.285156,95.6328125 L269.285156,84.3710938 C269.253906,83.3476511 269.031252,82.5585965 268.617188,82.0039062 L276.820312,82.0039062 L279.878906,91.1328125 Z M303.035156,88.53125 L305.671875,84.2773438 C306.062502,83.6445281 306.257812,83.050784 306.257812,82.4960938 C306.257812,82.3867182 306.246094,82.2226573 306.222656,82.0039062 L310.535156,82.0039062 C310.214842,82.2148448 309.955079,82.4472644 309.755859,82.7011719 C309.55664,82.9550794 309.253908,83.4414027 308.847656,84.1601562 L304.066406,91.9179688 L304.066406,95.6328125 C304.097656,96.6796927 304.32031,97.4687473 304.734375,98 L297.316406,98 C297.730471,97.4687473 297.953125,96.6796927 297.984375,95.6328125 L297.984375,91.9179688 L293.34375,84.546875 C292.640621,83.3906192 292.046877,82.5429714 291.5625,82.0039062 L299.625,82.0039062 C299.625,82.4414084 299.68164,82.8203109 299.794922,83.140625 C299.908204,83.4609391 300.132811,83.8906223 300.46875,84.4296875 L303.035156,88.53125 Z M330.65625,82.0039062 L331.21875,85.296875 C330.820311,85.0156236 330.439455,84.8359379 330.076172,84.7578125 C329.712889,84.6796871 329.097661,84.640625 328.230469,84.640625 L324.878906,84.640625 C324.394529,84.640625 324.058595,84.6640623 323.871094,84.7109375 C323.683593,84.7578127 323.527344,84.855468 323.402344,85.0039062 C323.277343,85.1523445 323.195313,85.328124 323.15625,85.53125 C323.117187,85.734376 323.097656,86.1132785 323.097656,86.6679688 L323.097656,93.453125 C323.097656,94.2031288 323.240233,94.7089831 323.525391,94.9707031 C323.810548,95.2324232 324.367183,95.3632812 325.195312,95.3632812 L328.359375,95.3632812 C329.570319,95.3710938 330.58984,95.2031267 331.417969,94.859375 L330.925781,98 L321.105469,98 C319.777337,97.9843749 318.742191,97.5507855 318,96.6992188 C317.624998,96.2851542 317.367188,95.8437523 317.226562,95.375 C317.085937,94.9062477 317.015625,94.2539104 317.015625,93.4179688 L317.015625,86.5859375 C317.015625,85.7499958 317.085937,85.0976586 317.226562,84.6289062 C317.367188,84.1601539 317.624998,83.7187521 318,83.3046875 C318.742191,82.4531207 319.777337,82.0195313 321.105469,82.0039062 L330.65625,82.0039062 Z M344.25,91.1328125 L339.609375,91.1328125 L339.609375,95.6210938 C339.640625,96.667974 339.863279,97.4609348 340.277344,98 L332.859375,98 C333.27344,97.4453097 333.496094,96.6523489 333.527344,95.6210938 L333.527344,84.3710938 C333.496094,83.3476511 333.27344,82.5585965 332.859375,82.0039062 L340.277344,82.0039062 C339.863279,82.5351589 339.640625,83.3242135 339.609375,84.3710938 L339.609375,88.4960938 L344.25,88.4960938 L344.25,84.3710938 C344.21875,83.3242135 343.996096,82.5351589 343.582031,82.0039062 L351,82.0039062 C350.585935,82.5351589 350.363281,83.3242135 350.332031,84.3710938 L350.332031,95.6210938 C350.363281,96.667974 350.585935,97.4609348 351,98 L343.582031,98 C343.996096,97.4609348 344.21875,96.667974 344.25,95.6210938 L344.25,91.1328125 Z M361.230469,91.1796875 L359.355469,91.1796875 L359.355469,95.6328125 C359.386719,96.6718802 359.609373,97.4609348 360.023438,98 L352.605469,98 C353.019533,97.4453097 353.242187,96.6562551 353.273438,95.6328125 L353.273438,84.3710938 C353.242187,83.3476511 353.019533,82.5585965 352.605469,82.0039062 L365.765625,82.0039062 C366.67188,82.0039062 367.355466,82.0585932 367.816406,82.1679688 C368.277346,82.2773443 368.67578,82.4843735 369.011719,82.7890625 C369.660159,83.3515653 369.996094,84.1953069 370.019531,85.3203125 L370.019531,88.765625 C370.019531,89.4921911 369.925782,90.0195296 369.738281,90.3476562 C369.402342,90.9179716 368.851566,91.203125 368.085938,91.203125 C367.984374,91.203125 367.843751,91.1953126 367.664062,91.1796875 L369.855469,95.8203125 C370.238283,96.6562542 370.648435,97.3828094 371.085938,98 L364.054688,98 L361.230469,91.1796875 Z M359.355469,88.5429688 L362.753906,88.5429688 C363.277346,88.5429688 363.617187,88.4570321 363.773438,88.2851562 C363.929688,88.1132804 364.007812,87.7343779 364.007812,87.1484375 L364.007812,86.3515625 C364.007812,85.5624961 363.933594,85.080079 363.785156,84.9042969 C363.636718,84.7285147 363.238284,84.640625 362.589844,84.640625 L359.355469,84.640625 L359.355469,88.5429688 Z M379.300781,98 L371.882812,98 C372.296877,97.4453097 372.519531,96.6562551 372.550781,95.6328125 L372.550781,84.3710938 C372.519531,83.3476511 372.296877,82.5585965 371.882812,82.0039062 L379.300781,82.0039062 C378.886717,82.5351589 378.664063,83.3242135 378.632812,84.3710938 L378.632812,95.6328125 C378.664063,96.6796927 378.886717,97.4687473 379.300781,98 L379.300781,98 Z M395.414062,82.0039062 L395.976562,85.2617188 C395.374997,84.8398416 394.753909,84.6289062 394.113281,84.6289062 L393.398438,84.640625 L387.867188,84.640625 C387.460935,84.640625 387.177735,84.7011713 387.017578,84.8222656 C386.857421,84.94336 386.777344,85.1601547 386.777344,85.4726562 L386.777344,86.0234375 C386.777344,86.4375021 386.853515,86.7031244 387.005859,86.8203125 C387.158204,86.9375006 387.50781,86.9960938 388.054688,86.9960938 L392.003906,86.9960938 C393.019536,86.9960938 393.749998,87.0449214 394.195312,87.1425781 C394.640627,87.2402349 395.015623,87.4335923 395.320312,87.7226562 C395.921878,88.269534 396.230469,89.1328066 396.246094,90.3125 L396.246094,94.6835938 C396.214844,95.7851618 395.863285,96.6289033 395.191406,97.2148438 C394.824217,97.5273453 394.431643,97.7363276 394.013672,97.8417969 C393.595701,97.9472662 392.925786,98 392.003906,98 L381.398438,98 L380.835938,94.8007812 C381.281252,95.04297 381.707029,95.1972653 382.113281,95.2636719 C382.519533,95.3300785 383.249995,95.3632812 384.304688,95.3632812 L388.957031,95.3632812 C389.511722,95.3632812 389.843749,95.3437502 389.953125,95.3046875 C390.085938,95.2421872 390.173828,95.1601568 390.216797,95.0585938 C390.259766,94.9570307 390.28125,94.7734388 390.28125,94.5078125 L390.28125,94.0039062 C390.28125,93.6210918 390.232422,93.3632819 390.134766,93.2304688 C390.037109,93.0976556 389.843751,93.03125 389.554688,93.03125 L385.03125,93.03125 C384.070308,93.03125 383.351565,92.9843755 382.875,92.890625 C382.398435,92.7968745 382.01172,92.6250013 381.714844,92.375 C381.113278,91.867185 380.804688,90.9804751 380.789062,89.7148438 L380.789062,85.3203125 C380.820313,84.2187445 381.171872,83.3750029 381.84375,82.7890625 C382.210939,82.4687484 382.603514,82.257813 383.021484,82.15625 C383.439455,82.054687 384.10937,82.0039062 385.03125,82.0039062 L395.414062,82.0039062 Z M401.71875,98 C402.132815,97.4687473 402.355469,96.6796927 402.386719,95.6328125 L402.386719,84.640625 L399.5625,84.640625 C398.992185,84.640625 398.570314,84.6718747 398.296875,84.734375 C398.023436,84.7968753 397.734377,84.9257803 397.429688,85.1210938 L397.910156,82.0039062 L412.945312,82.0039062 L413.425781,85.1210938 C413.121092,84.9257803 412.832033,84.7968753 412.558594,84.734375 C412.285155,84.6718747 411.863284,84.640625 411.292969,84.640625 L408.46875,84.640625 L408.46875,95.6328125 C408.5,96.6796927 408.722654,97.4687473 409.136719,98 L401.71875,98 Z M421.628906,98 L414.210938,98 C414.625002,97.4453097 414.847656,96.6562551 414.878906,95.6328125 L414.878906,84.3710938 C414.847656,83.3476511 414.625002,82.5585965 414.210938,82.0039062 L421.628906,82.0039062 C421.214842,82.5351589 420.992188,83.3242135 420.960938,84.3710938 L420.960938,95.6328125 C420.992188,96.6796927 421.214842,97.4687473 421.628906,98 L421.628906,98 Z M428.554688,82.0039062 L435.609375,82.0039062 L441.222656,96.1132812 C441.527345,96.8007847 441.941404,97.4296846 442.464844,98 L434.414062,98 C434.679689,97.6874984 434.8125,97.3320332 434.8125,96.9335938 C434.8125,96.4960916 434.679689,95.9765655 434.414062,95.375 L433.675781,93.6640625 L427.101562,93.6640625 L426.105469,95.8554688 C425.917968,96.2773459 425.824219,96.6445297 425.824219,96.9570312 C425.824219,97.2226576 425.92578,97.5703104 426.128906,98 L421.640625,98 C422.343754,97.2109336 422.980466,96.2070373 423.550781,94.9882812 L429.199219,82.953125 C429.035155,82.5937482 428.820314,82.2773451 428.554688,82.0039062 L428.554688,82.0039062 Z M432.597656,91.0859375 L430.546875,86.1289062 L428.308594,91.0859375 L432.597656,91.0859375 Z M451.394531,82.0039062 L457.546875,94.7539062 L457.546875,84.3710938 C457.515625,83.3242135 457.292971,82.5351589 456.878906,82.0039062 L460.851562,82.0039062 C460.437498,82.5351589 460.214844,83.3242135 460.183594,84.3710938 L460.183594,98 L452.449219,98 L446.003906,84.9804688 L446.003906,95.6328125 C446.035156,96.6718802 446.25781,97.4609348 446.671875,98 L442.699219,98 C443.113283,97.4453097 443.335937,96.6562551 443.367188,95.6328125 L443.367188,84.3710938 C443.335937,83.3476511 443.113283,82.5585965 442.699219,82.0039062 L451.394531,82.0039062 Z M482.015625,82.0039062 L482.578125,85.296875 C482.179686,85.0156236 481.79883,84.8359379 481.435547,84.7578125 C481.072264,84.6796871 480.457036,84.640625 479.589844,84.640625 L476.238281,84.640625 C475.753904,84.640625 475.41797,84.6640623 475.230469,84.7109375 C475.042968,84.7578127 474.886719,84.855468 474.761719,85.0039062 C474.636718,85.1523445 474.554688,85.328124 474.515625,85.53125 C474.476562,85.734376 474.457031,86.1132785 474.457031,86.6679688 L474.457031,93.453125 C474.457031,94.2031288 474.599608,94.7089831 474.884766,94.9707031 C475.169923,95.2324232 475.726558,95.3632812 476.554687,95.3632812 L479.71875,95.3632812 C480.929694,95.3710938 481.949215,95.2031267 482.777344,94.859375 L482.285156,98 L472.464844,98 C471.136712,97.9843749 470.101566,97.5507855 469.359375,96.6992188 C468.984373,96.2851542 468.726563,95.8437523 468.585937,95.375 C468.445312,94.9062477 468.375,94.2539104 468.375,93.4179688 L468.375,86.5859375 C468.375,85.7499958 468.445312,85.0976586 468.585937,84.6289062 C468.726563,84.1601539 468.984373,83.7187521 469.359375,83.3046875 C470.101566,82.4531207 471.136712,82.0195313 472.464844,82.0039062 L482.015625,82.0039062 Z M488.613281,82.0039062 L497.90625,82.0039062 C498.523441,82.0039062 499.121091,82.1210926 499.699219,82.3554688 C500.277347,82.5898449 500.742186,82.906248 501.09375,83.3046875 C501.687503,83.9375032 501.988281,85.0312422 501.996094,86.5859375 L501.996094,93.4179688 C501.988281,94.972664 501.687503,96.0664031 501.09375,96.6992188 C500.742186,97.0976582 500.277347,97.4140613 499.699219,97.6484375 C499.121091,97.8828137 498.523441,98 497.90625,98 L488.613281,98 C487.996091,98 487.39844,97.8828137 486.820312,97.6484375 C486.242185,97.4140613 485.777346,97.0976582 485.425781,96.6992188 C484.832028,96.0664031 484.53125,94.972664 484.523437,93.4179688 L484.523437,86.5859375 C484.53125,85.0312422 484.832028,83.9375032 485.425781,83.3046875 C485.777346,82.906248 486.242185,82.5898449 486.820312,82.3554688 C487.39844,82.1210926 487.996091,82.0039062 488.613281,82.0039062 L488.613281,82.0039062 Z M490.605469,86.515625 L490.605469,93.4882812 C490.605469,94.1835972 490.671874,94.6484363 490.804687,94.8828125 C491.046876,95.2109391 491.507809,95.3710938 492.1875,95.3632812 L494.332031,95.3632812 C494.988285,95.3632812 495.416015,95.2460949 495.615234,95.0117188 C495.814454,94.7773426 495.914062,94.2695352 495.914062,93.4882812 L495.914062,86.515625 C495.914062,85.820309 495.847657,85.3554699 495.714844,85.1210938 C495.472655,84.7929671 495.011722,84.6328125 494.332031,84.640625 L491.964844,84.640625 C491.425779,84.640625 491.064454,84.7675769 490.880859,85.0214844 C490.697265,85.2753919 490.605469,85.7734338 490.605469,86.515625 L490.605469,86.515625 Z M512.285156,82.0039062 L518.4375,94.7539062 L518.4375,84.3710938 C518.40625,83.3242135 518.183596,82.5351589 517.769531,82.0039062 L521.742188,82.0039062 C521.328123,82.5351589 521.105469,83.3242135 521.074219,84.3710938 L521.074219,98 L513.339844,98 L506.894531,84.9804688 L506.894531,95.6328125 C506.925781,96.6718802 507.148435,97.4609348 507.5625,98 L503.589844,98 C504.003908,97.4453097 504.226562,96.6562551 504.257812,95.6328125 L504.257812,84.3710938 C504.226562,83.3476511 504.003908,82.5585965 503.589844,82.0039062 L512.285156,82.0039062 Z M531.480469,82.0039062 L537.632812,94.7539062 L537.632812,84.3710938 C537.601562,83.3242135 537.378908,82.5351589 536.964844,82.0039062 L540.9375,82.0039062 C540.523435,82.5351589 540.300781,83.3242135 540.269531,84.3710938 L540.269531,98 L532.535156,98 L526.089844,84.9804688 L526.089844,95.6328125 C526.121094,96.6718802 526.343748,97.4609348 526.757812,98 L522.785156,98 C523.199221,97.4453097 523.421875,96.6562551 523.453125,95.6328125 L523.453125,84.3710938 C523.421875,83.3476511 523.199221,82.5585965 522.785156,82.0039062 L531.480469,82.0039062 Z M548.964844,84.640625 L548.964844,88.5195312 L553.863281,88.5195312 C554.839849,88.5195312 555.597654,88.3984387 556.136719,88.15625 L556.136719,91.578125 C555.816405,91.3124987 555.210942,91.1718751 554.320312,91.15625 L548.964844,91.15625 L548.964844,95.3632812 L554.894531,95.3632812 C555.433596,95.3632812 556.191401,95.1796893 557.167969,94.8125 L556.640625,98 L542.214844,98 C542.628908,97.4453097 542.851562,96.6562551 542.882812,95.6328125 L542.882812,84.3710938 C542.851562,83.3476511 542.628908,82.5585965 542.214844,82.0039062 L556.300781,82.0039062 L556.769531,85.0039062 C556.285154,84.8398429 555.908204,84.7402346 555.638672,84.7050781 C555.369139,84.6699217 554.804692,84.6484375 553.945312,84.640625 L548.964844,84.640625 Z M572.085938,82.0039062 L572.648438,85.296875 C572.249998,85.0156236 571.869142,84.8359379 571.505859,84.7578125 C571.142576,84.6796871 570.527348,84.640625 569.660156,84.640625 L566.308594,84.640625 C565.824216,84.640625 565.488282,84.6640623 565.300781,84.7109375 C565.11328,84.7578127 564.957032,84.855468 564.832031,85.0039062 C564.707031,85.1523445 564.625,85.328124 564.585938,85.53125 C564.546875,85.734376 564.527344,86.1132785 564.527344,86.6679688 L564.527344,93.453125 C564.527344,94.2031288 564.66992,94.7089831 564.955078,94.9707031 C565.240236,95.2324232 565.796871,95.3632812 566.625,95.3632812 L569.789062,95.3632812 C571.000006,95.3710938 572.019527,95.2031267 572.847656,94.859375 L572.355469,98 L562.535156,98 C561.207025,97.9843749 560.171879,97.5507855 559.429688,96.6992188 C559.054686,96.2851542 558.796876,95.8437523 558.65625,95.375 C558.515624,94.9062477 558.445312,94.2539104 558.445312,93.4179688 L558.445312,86.5859375 C558.445312,85.7499958 558.515624,85.0976586 558.65625,84.6289062 C558.796876,84.1601539 559.054686,83.7187521 559.429688,83.3046875 C560.171879,82.4531207 561.207025,82.0195313 562.535156,82.0039062 L572.085938,82.0039062 Z M577.699219,98 C578.113283,97.4687473 578.335937,96.6796927 578.367188,95.6328125 L578.367188,84.640625 L575.542969,84.640625 C574.972653,84.640625 574.550783,84.6718747 574.277344,84.734375 C574.003905,84.7968753 573.714845,84.9257803 573.410156,85.1210938 L573.890625,82.0039062 L588.925781,82.0039062 L589.40625,85.1210938 C589.101561,84.9257803 588.812501,84.7968753 588.539062,84.734375 C588.265624,84.6718747 587.843753,84.640625 587.273438,84.640625 L584.449219,84.640625 L584.449219,95.6328125 C584.480469,96.6796927 584.703123,97.4687473 585.117188,98 L577.699219,98 Z M597.609375,98 L590.191406,98 C590.605471,97.4453097 590.828125,96.6562551 590.859375,95.6328125 L590.859375,84.3710938 C590.828125,83.3476511 590.605471,82.5585965 590.191406,82.0039062 L597.609375,82.0039062 C597.19531,82.5351589 596.972656,83.3242135 596.941406,84.3710938 L596.941406,95.6328125 C596.972656,96.6796927 597.19531,97.4687473 597.609375,98 L597.609375,98 Z M603.550781,82.0039062 L612.84375,82.0039062 C613.460941,82.0039062 614.058591,82.1210926 614.636719,82.3554688 C615.214847,82.5898449 615.679686,82.906248 616.03125,83.3046875 C616.625003,83.9375032 616.925781,85.0312422 616.933594,86.5859375 L616.933594,93.4179688 C616.925781,94.972664 616.625003,96.0664031 616.03125,96.6992188 C615.679686,97.0976582 615.214847,97.4140613 614.636719,97.6484375 C614.058591,97.8828137 613.460941,98 612.84375,98 L603.550781,98 C602.933591,98 602.33594,97.8828137 601.757812,97.6484375 C601.179685,97.4140613 600.714846,97.0976582 600.363281,96.6992188 C599.769528,96.0664031 599.46875,94.972664 599.460938,93.4179688 L599.460938,86.5859375 C599.46875,85.0312422 599.769528,83.9375032 600.363281,83.3046875 C600.714846,82.906248 601.179685,82.5898449 601.757812,82.3554688 C602.33594,82.1210926 602.933591,82.0039062 603.550781,82.0039062 L603.550781,82.0039062 Z M605.542969,86.515625 L605.542969,93.4882812 C605.542969,94.1835972 605.609374,94.6484363 605.742188,94.8828125 C605.984376,95.2109391 606.445309,95.3710938 607.125,95.3632812 L609.269531,95.3632812 C609.925785,95.3632812 610.353515,95.2460949 610.552734,95.0117188 C610.751954,94.7773426 610.851562,94.2695352 610.851562,93.4882812 L610.851562,86.515625 C610.851562,85.820309 610.785157,85.3554699 610.652344,85.1210938 C610.410155,84.7929671 609.949222,84.6328125 609.269531,84.640625 L606.902344,84.640625 C606.363279,84.640625 606.001954,84.7675769 605.818359,85.0214844 C605.634765,85.2753919 605.542969,85.7734338 605.542969,86.515625 L605.542969,86.515625 Z M627.222656,82.0039062 L633.375,94.7539062 L633.375,84.3710938 C633.34375,83.3242135 633.121096,82.5351589 632.707031,82.0039062 L636.679688,82.0039062 C636.265623,82.5351589 636.042969,83.3242135 636.011719,84.3710938 L636.011719,98 L628.277344,98 L621.832031,84.9804688 L621.832031,95.6328125 C621.863281,96.6718802 622.085935,97.4609348 622.5,98 L618.527344,98 C618.941408,97.4453097 619.164062,96.6562551 619.195312,95.6328125 L619.195312,84.3710938 C619.164062,83.3476511 618.941408,82.5585965 618.527344,82.0039062 L627.222656,82.0039062 Z" id="MY-CHRISTIAN-CONNECT-2" fill="#F9B000"></path>
    </g>
</svg>