<?xml version="1.0" encoding="UTF-8"?>
<svg width="142px" height="144px" viewBox="0 0 142 144" version="1.1" xmlns="http://www.w3.org/2000/svg" xmlns:xlink="http://www.w3.org/1999/xlink">
    <!-- Generator: Sketch 45.2 (43514) - http://www.bohemiancoding.com/sketch -->
    <title>yw-y-blau</title>
    <desc>Created with Sketch.</desc>
    <defs></defs>
    <g id="Page-1" stroke="none" stroke-width="1" fill="none" fill-rule="evenodd">
        <path d="M11,23 L11,123.158301 C11,123.158301 11.5610352,132.603027 20.9985352,132.603027 L43.7637479,132.603027 C43.7637479,132.603027 48.3659668,128.685791 48.3659668,114.935791 L48.3659668,85.1096187 L11,23 Z" id="Path-39" fill="#1C60A1"></path>
        <path d="M99.5460516,132.249321 C100.668366,132.306209 124.343499,132.249324 124.343499,132.249324 C124.343499,132.249324 135.367585,133.025447 135.367585,121.462947 L135.367585,17 C135.367585,17 134.943513,19.8196364 132.568513,22.8196368 C130.193513,25.8196373 95.0013739,84.6033282 95.0013739,84.6033282 L95.0013739,114.044337 C95.0013739,114.044337 94.7919012,126.430477 99.5460516,132.249321 Z" id="Path-40" fill="#1C60A1"></path>
        <path d="M61.055327,7 C61.055327,7 59.7857958,15.4611816 69.409331,28.829834 C70.0233446,30.1411133 87.4798876,58.1535645 87.4798876,58.1535645 L108.936675,23.3366699 C108.936675,23.3366699 113.581937,16.4274902 113.331938,7.08862305 C113.332183,7.04223633 61.055327,7 61.055327,7 Z" id="Path-41" fill="#1C60A1"></path>
    </g>
</svg>