<?xml version="1.0" encoding="UTF-8"?>
<svg width="142px" height="139px" viewBox="0 0 142 139" version="1.1" xmlns="http://www.w3.org/2000/svg" xmlns:xlink="http://www.w3.org/1999/xlink">
    <!-- Generator: Sketch 45.2 (43514) - http://www.bohemiancoding.com/sketch -->
    <title>yw-y-gelb</title>
    <desc>Created with Sketch.</desc>
    <defs></defs>
    <g id="Page-1" stroke="none" stroke-width="1" fill="none" fill-rule="evenodd">
        <path d="M10,23 L10,123.158301 C10,123.158301 10.5610352,132.603027 19.9985352,132.603027 L42.7637479,132.603027 C42.7637479,132.603027 47.3659668,128.685791 47.3659668,114.935791 L47.3659668,85.1096187 L10,23 Z" id="Path-33" fill="#F9B000"></path>
        <path d="M99.5460516,132.249321 C100.668366,132.306209 124.343499,132.249324 124.343499,132.249324 C124.343499,132.249324 135.367585,133.025447 135.367585,121.462947 L135.367585,17 C135.367585,17 134.943513,19.8196364 132.568513,22.8196368 C130.193513,25.8196373 95.0013739,84.6033282 95.0013739,84.6033282 L95.0013739,114.044337 C95.0013739,114.044337 94.7919012,126.430477 99.5460516,132.249321 Z" id="Path-34" fill="#F9B000"></path>
        <path d="M60.055327,7 C60.055327,7 58.7857958,15.4611816 68.409331,28.829834 C69.0233446,30.1411133 86.4798876,58.1535645 86.4798876,58.1535645 L107.936675,23.3366699 C107.936675,23.3366699 112.581937,16.4274902 112.331938,7.08862305 C112.332183,7.04223633 60.055327,7 60.055327,7 Z" id="Path-35" fill="#F9B000"></path>
    </g>
</svg>